AtkinsonHyperlegibleMono-ExtraBoldItalic.sfdir
StartChar: percent
Encoding: 37 37 332
Width: 632
GlyphClass: 1
Flags: W
LayerCount: 2
Fore
SplineSet
140 412 m 128,-1,1
 107 431 107 431 88 464 c 128,-1,2
 69 497 69 497 69 536 c 256,3,4
 69 575 69 575 88 608 c 128,-1,5
 107 641 107 641 140 660 c 128,-1,6
 173 679 173 679 212 679 c 256,7,8
 251 679 251 679 284 660 c 128,-1,9
 317 641 317 641 336 608 c 128,-1,10
 355 575 355 575 355 536 c 256,11,12
 355 497 355 497 336 464 c 128,-1,13
 317 431 317 431 284 412 c 128,-1,14
 251 393 251 393 212 393 c 256,15,0
 173 393 173 393 140 412 c 128,-1,1
248 498.5 m 128,-1,17
 263 514 263 514 263 536 c 256,18,19
 263 558 263 558 248 573.5 c 128,-1,20
 233 589 233 589 212 589 c 256,21,22
 191 589 191 589 176 573.5 c 128,-1,23
 161 558 161 558 161 536 c 256,24,25
 161 514 161 514 176 498.5 c 128,-1,26
 191 483 191 483 212 483 c 256,27,16
 233 483 233 483 248 498.5 c 128,-1,17
515 668 m 1,28,-1
 645 668 l 1,29,-1
 153 0 l 1,30,-1
 23 0 l 1,31,-1
 515 668 l 1,28,-1
385 6 m 128,-1,33
 352 25 352 25 333 58 c 128,-1,34
 314 91 314 91 314 130 c 256,35,36
 314 169 314 169 333 202 c 128,-1,37
 352 235 352 235 385 254 c 128,-1,38
 418 273 418 273 457 273 c 256,39,40
 496 273 496 273 529 254 c 128,-1,41
 562 235 562 235 581 202 c 128,-1,42
 600 169 600 169 600 130 c 256,43,44
 600 91 600 91 581 58 c 128,-1,45
 562 25 562 25 529 6 c 128,-1,46
 496 -13 496 -13 457 -13 c 256,47,32
 418 -13 418 -13 385 6 c 128,-1,33
493 92.5 m 128,-1,49
 508 108 508 108 508 130 c 256,50,51
 508 152 508 152 493 167.5 c 128,-1,52
 478 183 478 183 457 183 c 256,53,54
 436 183 436 183 421 167.5 c 128,-1,55
 406 152 406 152 406 130 c 256,56,57
 406 108 406 108 421 92.5 c 128,-1,58
 436 77 436 77 457 77 c 256,59,48
 478 77 478 77 493 92.5 c 128,-1,49
EndSplineSet
EndChar
StartChar: parenright
Encoding: 41 41 269
Width: 632
GlyphClass: 1
Flags: W
LayerCount: 2
Fore
SplineSet
264.5 75 m 128,-1,1
 360 210 360 210 360 359 c 0,2,3
 360 445 360 445 329 533.5 c 128,-1,4
 298 622 298 622 238 708 c 1,5,-1
 410 708 l 1,6,7
 518 542 518 542 518 363 c 0,8,9
 518 214 518 214 442 80.5 c 128,-1,10
 366 -53 366 -53 222 -162 c 1,11,-1
 20 -162 l 1,12,0
 169 -60 169 -60 264.5 75 c 128,-1,1
EndSplineSet
EndChar
StartChar: comma
Encoding: 44 44 250
Width: 632
GlyphClass: 1
Flags: W
LayerCount: 2
Fore
SplineSet
188 42 m 128,-1,1
 170 71 170 71 170 102 c 0,2,3
 170 150 170 150 204 183.5 c 128,-1,4
 238 217 238 217 286 217 c 0,5,6
 332 217 332 217 365 185.5 c 128,-1,7
 398 154 398 154 398 109 c 0,8,9
 398 89 398 89 391.5 71.5 c 128,-1,10
 385 54 385 54 372 34 c 2,11,-1
 248 -162 l 1,12,-1
 134 -162 l 1,13,-1
 238 0 l 1,14,0
 206 13 206 13 188 42 c 128,-1,1
EndSplineSet
EndChar
StartChar: period
Encoding: 46 46 249
Width: 632
GlyphClass: 1
Flags: W
LayerCount: 2
Fore
SplineSet
204 21.5 m 128,-1,1
 170 55 170 55 170 102 c 256,2,3
 170 149 170 149 204 183 c 128,-1,4
 238 217 238 217 285 217 c 256,5,6
 332 217 332 217 365.5 183 c 128,-1,7
 399 149 399 149 399 102 c 256,8,9
 399 55 399 55 365.5 21.5 c 128,-1,10
 332 -12 332 -12 285 -12 c 256,11,0
 238 -12 238 -12 204 21.5 c 128,-1,1
EndSplineSet
EndChar
StartChar: slash
Encoding: 47 47 262
Width: 632
GlyphClass: 5
Flags: W
LayerCount: 2
Fore
SplineSet
514 708 m 1,0,-1
 690 708 l 1,1,-1
 144 -90 l 1,2,-1
 -32 -90 l 1,3,-1
 514 708 l 1,0,-1
EndSplineSet
EndChar
StartChar: two
Encoding: 50 50 231
Width: 632
GlyphClass: 5
Flags: W
LayerCount: 2
Fore
SplineSet
344 335.5 m 128,-1,1
 452 422 452 422 452 493 c 0,2,3
 452 523 452 523 429.5 541.5 c 128,-1,4
 407 560 407 560 373 560 c 0,5,6
 303 560 303 560 266 483 c 1,7,-1
 123 541 l 1,8,9
 162 614 162 614 230 647 c 128,-1,10
 298 680 298 680 379 680 c 0,11,12
 481 680 481 680 548.5 633 c 128,-1,13
 616 586 616 586 616 501 c 0,14,15
 616 421 616 421 564 354 c 128,-1,16
 512 287 512 287 435.5 236.5 c 128,-1,17
 359 186 359 186 252 132 c 1,18,-1
 546 132 l 1,19,-1
 518 0 l 1,20,-1
 4 0 l 1,21,-1
 32 133 l 1,22,0
 236 249 236 249 344 335.5 c 128,-1,1
EndSplineSet
Substitution2: "'sups' Superscript in Latin lookup 6 subtable" uni00B2
AlternateSubs2: "'aalt' Access All Alternates in Latin lookup 0 subtable" uni00B2
EndChar
StartChar: five
Encoding: 53 53 234
Width: 632
GlyphClass: 1
Flags: W
LayerCount: 2
Fore
SplineSet
133 28 m 128,-1,1
 66 68 66 68 40 141 c 1,2,-1
 182 190 l 1,3,4
 189 150 189 150 217.5 129 c 128,-1,5
 246 108 246 108 288 108 c 0,6,7
 327 108 327 108 355 127.5 c 128,-1,8
 383 147 383 147 397.5 178 c 128,-1,9
 412 209 412 209 412 243 c 0,10,11
 412 287 412 287 385.5 311 c 128,-1,12
 359 335 359 335 317 335 c 0,13,14
 254 335 254 335 203 271 c 1,15,-1
 71 326 l 1,16,-1
 185 668 l 1,17,-1
 643 668 l 1,18,-1
 615 537 l 1,19,-1
 293 537 l 1,20,-1
 255 423 l 1,21,22
 311 455 311 455 376 455 c 0,23,24
 435 455 435 455 482 430 c 128,-1,25
 529 405 529 405 555.5 359 c 128,-1,26
 582 313 582 313 582 253 c 0,27,28
 582 173 582 173 543.5 113 c 128,-1,29
 505 53 505 53 438 20.5 c 128,-1,30
 371 -12 371 -12 288 -12 c 0,31,0
 200 -12 200 -12 133 28 c 128,-1,1
EndSplineSet
EndChar
StartChar: nine
Encoding: 57 57 238
Width: 632
GlyphClass: 1
Flags: W
LayerCount: 2
Fore
SplineSet
193.5 230 m 128,-1,1
 151 260 151 260 127.5 306.5 c 128,-1,2
 104 353 104 353 104 407 c 0,3,4
 104 480 104 480 140 542.5 c 128,-1,5
 176 605 176 605 237.5 642 c 128,-1,6
 299 679 299 679 372 679 c 0,7,8
 438 679 438 679 488.5 649.5 c 128,-1,9
 539 620 539 620 567 570.5 c 128,-1,10
 595 521 595 521 595 462 c 0,11,12
 595 410 595 410 573 359.5 c 128,-1,13
 551 309 551 309 511 255 c 2,14,-1
 319 0 l 1,15,-1
 141 0 l 1,16,-1
 290 193 l 1,17,0
 236 200 236 200 193.5 230 c 128,-1,1
418 366.5 m 128,-1,19
 450 400 450 400 450 445 c 0,20,21
 450 483 450 483 425 509.5 c 128,-1,22
 400 536 400 536 359 536 c 0,23,24
 311 536 311 536 279.5 502 c 128,-1,25
 248 468 248 468 248 422 c 0,26,27
 248 383 248 383 274 358 c 128,-1,28
 300 333 300 333 341 333 c 0,29,18
 386 333 386 333 418 366.5 c 128,-1,19
EndSplineSet
EndChar
StartChar: equal
Encoding: 61 61 315
Width: 632
GlyphClass: 1
Flags: W
LayerCount: 2
Fore
SplineSet
94 415 m 1,0,-1
 608 415 l 1,1,-1
 579 278 l 1,2,-1
 65 278 l 1,3,-1
 94 415 l 1,0,-1
55 230 m 1,4,-1
 569 230 l 1,5,-1
 540 91 l 1,6,-1
 26 91 l 1,7,-1
 55 230 l 1,4,-1
EndSplineSet
EndChar
StartChar: greater
Encoding: 62 62 317
Width: 632
GlyphClass: 1
Flags: W
LayerCount: 2
Fore
SplineSet
46 146 m 1,0,-1
 388 260 l 1,1,-1
 94 372 l 1,2,-1
 124 513 l 1,3,-1
 576 302 l 1,4,-1
 554 198 l 1,5,-1
 12 -14 l 1,6,-1
 46 146 l 1,0,-1
EndSplineSet
EndChar
StartChar: A
Encoding: 65 65 2
Width: 632
GlyphClass: 2
Flags: W
AnchorPoint: "Anchor-2" 550 10 basechar 0
AnchorPoint: "Anchor-1" 405 668 basechar 0
AnchorPoint: "Anchor-0" 263 0 basechar 0
LayerCount: 2
Fore
SplineSet
316 668 m 1,0,-1
 494 668 l 1,1,-1
 548 0 l 1,2,-1
 398 0 l 1,3,-1
 392 114 l 1,4,-1
 187 114 l 1,5,-1
 132 0 l 1,6,-1
 -22 0 l 1,7,-1
 316 668 l 1,0,-1
385 251 m 1,8,-1
 372 496 l 1,9,-1
 368 496 l 1,10,-1
 251 251 l 1,11,-1
 385 251 l 1,8,-1
EndSplineSet
Substitution2: "Single Substitution lookup 14 subtable" ordfeminine
AlternateSubs2: "'aalt' Access All Alternates in Latin lookup 0 subtable" ordfeminine
EndChar
StartChar: B
Encoding: 66 66 13
Width: 632
GlyphClass: 2
Flags: W
AnchorPoint: "Anchor-1" 417 668 basechar 0
AnchorPoint: "Anchor-0" 275 0 basechar 0
LayerCount: 2
Fore
SplineSet
155 668 m 1,0,-1
 391 668 l 2,1,2
 505 668 505 668 565 627 c 128,-1,3
 625 586 625 586 625 513 c 0,4,5
 625 460 625 460 598 414.5 c 128,-1,6
 571 369 571 369 507 344 c 1,7,8
 543 327 543 327 565 294 c 128,-1,9
 587 261 587 261 587 216 c 0,10,11
 587 114 587 114 520.5 57 c 128,-1,12
 454 0 454 0 344 0 c 2,13,-1
 13 0 l 1,14,-1
 155 668 l 1,0,-1
402.5 154 m 128,-1,16
 430 175 430 175 430 213 c 0,17,18
 430 241 430 241 408.5 258 c 128,-1,19
 387 275 387 275 350 275 c 2,20,-1
 226 275 l 1,21,-1
 195 133 l 1,22,-1
 326 133 l 2,23,15
 375 133 375 133 402.5 154 c 128,-1,16
441.5 428 m 128,-1,25
 465 447 465 447 465 480 c 0,26,27
 465 504 465 504 445.5 519.5 c 128,-1,28
 426 535 426 535 391 535 c 2,29,-1
 282 535 l 1,30,-1
 254 409 l 1,31,-1
 376 409 l 2,32,24
 418 409 418 409 441.5 428 c 128,-1,25
EndSplineSet
EndChar
StartChar: C
Encoding: 67 67 14
Width: 632
GlyphClass: 2
Flags: W
AnchorPoint: "Anchor-1" 428 668 basechar 0
AnchorPoint: "Anchor-0" 313 0 basechar 0
LayerCount: 2
Fore
SplineSet
126.5 61.5 m 128,-1,1
 64 135 64 135 64 256 c 0,2,3
 64 353 64 353 101.5 451.5 c 128,-1,4
 139 550 139 550 215.5 615 c 128,-1,5
 292 680 292 680 402 680 c 0,6,7
 487 680 487 680 544 637 c 128,-1,8
 601 594 601 594 622 516 c 1,9,-1
 489 470 l 1,10,11
 480 507 480 507 457.5 526.5 c 128,-1,12
 435 546 435 546 400 546 c 0,13,14
 343 546 343 546 304 498.5 c 128,-1,15
 265 451 265 451 246.5 385 c 128,-1,16
 228 319 228 319 228 265 c 0,17,18
 228 202 228 202 254 162 c 128,-1,19
 280 122 280 122 334 122 c 0,20,21
 363 122 363 122 392 138 c 128,-1,22
 421 154 421 154 444 195 c 1,23,-1
 572 142 l 1,24,25
 526 70 526 70 458 29 c 128,-1,26
 390 -12 390 -12 312 -12 c 0,27,0
 189 -12 189 -12 126.5 61.5 c 128,-1,1
EndSplineSet
EndChar
StartChar: H
Encoding: 72 72 37
Width: 632
GlyphClass: 2
Flags: W
AnchorPoint: "Anchor-1" 406 668 basechar 0
AnchorPoint: "Anchor-0" 264 0 basechar 0
LayerCount: 2
Fore
SplineSet
140 668 m 1,0,-1
 309 668 l 1,1,-1
 256 418 l 1,2,-1
 448 418 l 1,3,-1
 501 668 l 1,4,-1
 670 668 l 1,5,-1
 528 0 l 1,6,-1
 359 0 l 1,7,-1
 416 268 l 1,8,-1
 224 268 l 1,9,-1
 167 0 l 1,10,-1
 -2 0 l 1,11,-1
 140 668 l 1,0,-1
EndSplineSet
EndChar
StartChar: K
Encoding: 75 75 50
Width: 632
GlyphClass: 2
Flags: W
AnchorPoint: "Anchor-1" 414 668 basechar 0
AnchorPoint: "Anchor-0" 267 0 basechar 0
LayerCount: 2
Fore
SplineSet
146 668 m 1,0,-1
 300 668 l 1,1,-1
 245 408 l 1,2,-1
 511 668 l 1,3,-1
 697 668 l 1,4,-1
 397 380 l 1,5,-1
 564 0 l 1,6,-1
 387 0 l 1,7,-1
 277 265 l 1,8,-1
 199 188 l 1,9,-1
 158 0 l 1,10,-1
 4 0 l 1,11,-1
 146 668 l 1,0,-1
EndSplineSet
EndChar
StartChar: N
Encoding: 78 78 57
Width: 632
GlyphClass: 2
Flags: W
AnchorPoint: "Anchor-1" 405 668 basechar 0
AnchorPoint: "Anchor-0" 255 0 basechar 0
LayerCount: 2
Fore
SplineSet
140 668 m 1,0,-1
 316 668 l 1,1,-1
 427 211 l 1,2,-1
 431 211 l 1,3,-1
 528 668 l 1,4,-1
 670 668 l 1,5,-1
 528 0 l 1,6,-1
 352 0 l 1,7,-1
 241 457 l 1,8,-1
 237 457 l 1,9,-1
 140 0 l 1,10,-1
 -2 0 l 1,11,-1
 140 668 l 1,0,-1
EndSplineSet
EndChar
StartChar: O
Encoding: 79 79 62
Width: 632
GlyphClass: 2
Flags: W
AnchorPoint: "Anchor-3" 691 668 basechar 0
AnchorPoint: "Anchor-2" 506 10 basechar 0
AnchorPoint: "Anchor-1" 406 668 basechar 0
AnchorPoint: "Anchor-0" 264 0 basechar 0
LayerCount: 2
Fore
SplineSet
109 58.5 m 128,-1,1
 48 129 48 129 48 251 c 0,2,3
 48 352 48 352 84.5 451 c 128,-1,4
 121 550 121 550 195 615 c 128,-1,5
 269 680 269 680 377 680 c 0,6,7
 498 680 498 680 559 609.5 c 128,-1,8
 620 539 620 539 620 417 c 0,9,10
 620 316 620 316 583.5 217 c 128,-1,11
 547 118 547 118 473 53 c 128,-1,12
 399 -12 399 -12 291 -12 c 0,13,0
 170 -12 170 -12 109 58.5 c 128,-1,1
388 173 m 128,-1,15
 424 224 424 224 441.5 293.5 c 128,-1,16
 459 363 459 363 459 418 c 0,17,18
 459 475 459 475 438 510.5 c 128,-1,19
 417 546 417 546 369 546 c 0,20,21
 316 546 316 546 280 495.5 c 128,-1,22
 244 445 244 445 226.5 375 c 128,-1,23
 209 305 209 305 209 250 c 0,24,25
 209 193 209 193 230 157.5 c 128,-1,26
 251 122 251 122 299 122 c 0,27,14
 352 122 352 122 388 173 c 128,-1,15
EndSplineSet
Substitution2: "Single Substitution lookup 14 subtable" ordmasculine
AlternateSubs2: "'aalt' Access All Alternates in Latin lookup 0 subtable" ordmasculine
EndChar
StartChar: S
Encoding: 83 83 77
Width: 632
GlyphClass: 2
Flags: W
AnchorPoint: "Anchor-1" 395 668 basechar 0
AnchorPoint: "Anchor-0" 293 0 basechar 0
LayerCount: 2
Fore
SplineSet
126 35.5 m 128,-1,1
 56 83 56 83 33 164 c 1,2,-1
 188 215 l 1,3,4
 195 174 195 174 232.5 148.5 c 128,-1,5
 270 123 270 123 317 123 c 0,6,7
 358 123 358 123 385 143 c 128,-1,8
 412 163 412 163 412 194 c 0,9,10
 412 240 412 240 316 268 c 2,11,-1
 267 284 l 2,12,13
 188 308 188 308 145.5 350 c 128,-1,14
 103 392 103 392 103 459 c 0,15,16
 103 525 103 525 141.5 575 c 128,-1,17
 180 625 180 625 244 652.5 c 128,-1,18
 308 680 308 680 383 680 c 0,19,20
 473 680 473 680 538.5 640.5 c 128,-1,21
 604 601 604 601 624 527 c 1,22,-1
 471 476 l 1,23,24
 460 507 460 507 431.5 526 c 128,-1,25
 403 545 403 545 363 545 c 0,26,27
 328 545 328 545 301.5 529 c 128,-1,28
 275 513 275 513 275 484 c 0,29,30
 275 463 275 463 291 448 c 128,-1,31
 307 433 307 433 333 425 c 2,32,-1
 394 405 l 2,33,34
 494 372 494 372 539.5 330 c 128,-1,35
 585 288 585 288 585 225 c 0,36,37
 585 159 585 159 547.5 105 c 128,-1,38
 510 51 510 51 444.5 19.5 c 128,-1,39
 379 -12 379 -12 298 -12 c 0,40,0
 196 -12 196 -12 126 35.5 c 128,-1,1
EndSplineSet
EndChar
StartChar: asciicircum
Encoding: 94 94 325
Width: 632
GlyphClass: 1
Flags: W
LayerCount: 2
Fore
SplineSet
345 668 m 1,0,-1
 465 668 l 1,1,-1
 574 311 l 1,2,-1
 427 311 l 1,3,-1
 374 495 l 1,4,-1
 241 311 l 1,5,-1
 84 311 l 1,6,-1
 345 668 l 1,0,-1
EndSplineSet
EndChar
StartChar: a
Encoding: 97 97 112
Width: 632
GlyphClass: 2
Flags: W
AnchorPoint: "Anchor-2" 515 10 basechar 0
AnchorPoint: "Anchor-1" 369 496 basechar 0
AnchorPoint: "Anchor-0" 264 0 basechar 0
LayerCount: 2
Fore
SplineSet
81 24 m 128,-1,1
 33 60 33 60 33 121 c 0,2,3
 33 218 33 218 124 262.5 c 128,-1,4
 215 307 215 307 407 315 c 1,5,-1
 408 319 l 2,6,7
 411 331 411 331 411 342 c 0,8,9
 411 371 411 371 391 387.5 c 128,-1,10
 371 404 371 404 334 404 c 0,11,12
 302 404 302 404 275.5 388 c 128,-1,13
 249 372 249 372 239 347 c 1,14,-1
 103 398 l 1,15,16
 133 449 133 449 195 480 c 128,-1,17
 257 511 257 511 337 511 c 0,18,19
 441 511 441 511 502 469 c 128,-1,20
 563 427 563 427 563 346 c 0,21,22
 563 316 563 316 556 287 c 2,23,-1
 534 185 l 2,24,25
 523 131 523 131 517 79.5 c 128,-1,26
 511 28 511 28 513 0 c 1,27,-1
 363 0 l 1,28,-1
 358 47 l 1,29,30
 298 -12 298 -12 203 -12 c 0,31,0
 129 -12 129 -12 81 24 c 128,-1,1
337.5 119 m 128,-1,33
 369 144 369 144 379 189 c 2,34,-1
 387 220 l 1,35,36
 202 213 202 213 202 142 c 0,37,38
 202 120 202 120 220 107 c 128,-1,39
 238 94 238 94 266 94 c 0,40,32
 306 94 306 94 337.5 119 c 128,-1,33
EndSplineSet
Substitution2: "Single Substitution lookup 14 subtable" ordfeminine
AlternateSubs2: "'aalt' Access All Alternates in Latin lookup 0 subtable" ordfeminine
EndChar
StartChar: d
Encoding: 100 100 129
Width: 632
GlyphClass: 2
Flags: W
AnchorPoint: "Anchor-3" 632 496 basechar 0
AnchorPoint: "Anchor-1" 434 796 basechar 0
AnchorPoint: "Anchor-0" 265 0 basechar 0
LayerCount: 2
Fore
SplineSet
82 45.5 m 128,-1,1
 35 103 35 103 35 194 c 0,2,3
 35 276 35 276 67 348.5 c 128,-1,4
 99 421 99 421 160 466 c 128,-1,5
 221 511 221 511 302 511 c 0,6,7
 352 511 352 511 392 488.5 c 128,-1,8
 432 466 432 466 446 424 c 1,9,-1
 507 708 l 1,10,-1
 671 708 l 1,11,-1
 561 195 l 2,12,13
 538 85 538 85 537 0 c 1,14,-1
 380 0 l 1,15,-1
 374 66 l 1,16,17
 339 26 339 26 296 7 c 128,-1,18
 253 -12 253 -12 210 -12 c 0,19,0
 129 -12 129 -12 82 45.5 c 128,-1,1
361.5 142.5 m 128,-1,21
 392 171 392 171 406.5 212.5 c 128,-1,22
 421 254 421 254 421 292 c 0,23,24
 421 336 421 336 399 361 c 128,-1,25
 377 386 377 386 335 386 c 0,26,27
 291 386 291 386 261.5 357.5 c 128,-1,28
 232 329 232 329 218 288.5 c 128,-1,29
 204 248 204 248 204 214 c 0,30,31
 204 169 204 169 225.5 141.5 c 128,-1,32
 247 114 247 114 287 114 c 0,33,20
 331 114 331 114 361.5 142.5 c 128,-1,21
EndSplineSet
EndChar
StartChar: h
Encoding: 104 104 147
Width: 632
GlyphClass: 2
Flags: W
AnchorPoint: "Anchor-1" 436 796 basechar 0
AnchorPoint: "Anchor-0" 267 0 basechar 0
LayerCount: 2
Fore
SplineSet
174 708 m 1,0,-1
 338 708 l 1,1,-1
 280 432 l 1,2,3
 304 462 304 462 348 486.5 c 128,-1,4
 392 511 392 511 442 511 c 0,5,6
 584 511 584 511 584 375 c 0,7,8
 584 341 584 341 575 300 c 2,9,-1
 511 0 l 1,10,-1
 347 0 l 1,11,-1
 406 276 l 2,12,13
 411 304 411 304 411 322 c 0,14,15
 411 386 411 386 353 386 c 0,16,17
 312 386 312 386 283 349.5 c 128,-1,18
 254 313 254 313 240 248 c 2,19,-1
 188 0 l 1,20,-1
 24 0 l 1,21,-1
 174 708 l 1,0,-1
EndSplineSet
EndChar
StartChar: k
Encoding: 107 107 161
Width: 632
GlyphClass: 2
Flags: W
AnchorPoint: "Anchor-1" 444 796 basechar 0
AnchorPoint: "Anchor-0" 275 0 basechar 0
LayerCount: 2
Fore
SplineSet
169 708 m 1,0,-1
 333 708 l 1,1,-1
 247 302 l 1,2,-1
 463 496 l 1,3,-1
 668 496 l 1,4,-1
 416 283 l 1,5,-1
 576 0 l 1,6,-1
 397 0 l 1,7,-1
 296 181 l 1,8,-1
 205 104 l 1,9,-1
 183 0 l 1,10,-1
 19 0 l 1,11,-1
 169 708 l 1,0,-1
EndSplineSet
EndChar
StartChar: o
Encoding: 111 111 173
Width: 632
GlyphClass: 2
Flags: W
AnchorPoint: "Anchor-3" 637 496 basechar 0
AnchorPoint: "Anchor-2" 497 10 basechar 0
AnchorPoint: "Anchor-1" 366 496 basechar 0
AnchorPoint: "Anchor-0" 264 0 basechar 0
LayerCount: 2
Fore
SplineSet
163 16.5 m 128,-1,1
 108 45 108 45 77.5 96 c 128,-1,2
 47 147 47 147 47 213 c 0,3,4
 47 299 47 299 84 367 c 128,-1,5
 121 435 121 435 188.5 473 c 128,-1,6
 256 511 256 511 343 511 c 0,7,8
 416 511 416 511 471 482.5 c 128,-1,9
 526 454 526 454 556.5 403 c 128,-1,10
 587 352 587 352 587 286 c 0,11,12
 587 200 587 200 550 132 c 128,-1,13
 513 64 513 64 445.5 26 c 128,-1,14
 378 -12 378 -12 291 -12 c 0,15,0
 218 -12 218 -12 163 16.5 c 128,-1,1
368.5 141.5 m 128,-1,17
 396 170 396 170 408 210.5 c 128,-1,18
 420 251 420 251 420 288 c 0,19,20
 420 334 420 334 399.5 360 c 128,-1,21
 379 386 379 386 336 386 c 256,22,23
 293 386 293 386 265.5 357.5 c 128,-1,24
 238 329 238 329 226 288.5 c 128,-1,25
 214 248 214 248 214 211 c 0,26,27
 214 165 214 165 234.5 139 c 128,-1,28
 255 113 255 113 298 113 c 256,29,16
 341 113 341 113 368.5 141.5 c 128,-1,17
EndSplineSet
Substitution2: "Single Substitution lookup 14 subtable" ordmasculine
AlternateSubs2: "'aalt' Access All Alternates in Latin lookup 0 subtable" ordmasculine
EndChar
StartChar: p
Encoding: 112 112 182
Width: 632
GlyphClass: 2
Flags: W
AnchorPoint: "Anchor-1" 368 496 basechar 0
AnchorPoint: "Anchor-0" 263 0 basechar 0
LayerCount: 2
Fore
SplineSet
113 496 m 1,0,-1
 258 496 l 1,1,-1
 263 430 l 1,2,3
 296 470 296 470 337.5 490.5 c 128,-1,4
 379 511 379 511 424 511 c 0,5,6
 505 511 505 511 552 453.5 c 128,-1,7
 599 396 599 396 599 305 c 0,8,9
 599 223 599 223 567 150.5 c 128,-1,10
 535 78 535 78 474 33 c 128,-1,11
 413 -12 413 -12 332 -12 c 0,12,13
 282 -12 282 -12 242 10.5 c 128,-1,14
 202 33 202 33 188 75 c 1,15,-1
 138 -162 l 1,16,-1
 -26 -162 l 1,17,-1
 113 496 l 1,0,-1
372 142.5 m 128,-1,19
 402 171 402 171 416 211 c 128,-1,20
 430 251 430 251 430 286 c 0,21,22
 430 331 430 331 408.5 358.5 c 128,-1,23
 387 386 387 386 347 386 c 0,24,25
 302 386 302 386 271.5 356.5 c 128,-1,26
 241 327 241 327 226.5 285 c 128,-1,27
 212 243 212 243 212 207 c 0,28,29
 212 163 212 163 234 138.5 c 128,-1,30
 256 114 256 114 298 114 c 0,31,18
 342 114 342 114 372 142.5 c 128,-1,19
EndSplineSet
EndChar
StartChar: q
Encoding: 113 113 184
Width: 632
GlyphClass: 2
Flags: W
AnchorPoint: "Anchor-1" 373 496 basechar 0
AnchorPoint: "Anchor-0" 267 0 basechar 0
LayerCount: 2
Fore
SplineSet
319 -51 m 0,1,2
 319 -25 319 -25 327 10 c 2,3,-1
 339 62 l 1,4,5
 311 26 311 26 269 7 c 128,-1,6
 227 -12 227 -12 187 -12 c 0,7,8
 117 -12 117 -12 75 41.5 c 128,-1,9
 33 95 33 95 33 183 c 0,10,11
 33 258 33 258 61 334 c 128,-1,12
 89 410 89 410 145.5 460.5 c 128,-1,13
 202 511 202 511 285 511 c 0,14,15
 329 511 329 511 365 489 c 128,-1,16
 401 467 401 467 416 426 c 1,17,-1
 450 496 l 1,18,-1
 595 496 l 1,19,-1
 498 37 l 2,20,21
 494 18 494 18 494 2 c 0,22,23
 494 -18 494 -18 503 -27 c 128,-1,24
 512 -36 512 -36 534 -36 c 0,25,26
 552 -36 552 -36 573 -30 c 1,27,-1
 544 -165 l 1,28,29
 510 -174 510 -174 472 -174 c 0,30,0
 319 -174 319 -174 319 -51 c 0,1,2
337 142.5 m 128,-1,32
 364 171 364 171 378 214 c 128,-1,33
 392 257 392 257 392 298 c 0,34,35
 392 340 392 340 373.5 363 c 128,-1,36
 355 386 355 386 323 386 c 0,37,38
 284 386 284 386 256.5 356.5 c 128,-1,39
 229 327 229 327 215.5 285.5 c 128,-1,40
 202 244 202 244 202 210 c 0,41,42
 202 169 202 169 221 141.5 c 128,-1,43
 240 114 240 114 273 114 c 0,44,31
 310 114 310 114 337 142.5 c 128,-1,32
EndSplineSet
EndChar
StartChar: r
Encoding: 114 114 185
Width: 632
GlyphClass: 2
Flags: W
AnchorPoint: "Anchor-1" 383 496 basechar 0
AnchorPoint: "Anchor-0" 141 0 basechar 0
LayerCount: 2
Fore
SplineSet
164 496 m 1,0,-1
 295 496 l 1,1,-1
 301 405 l 1,2,3
 403 511 403 511 544 511 c 0,4,5
 590 511 590 511 634 500 c 1,6,-1
 601 341 l 1,7,8
 551 362 551 362 482 362 c 0,9,10
 393 362 393 362 337 315.5 c 128,-1,11
 281 269 281 269 262 180 c 2,12,-1
 223 0 l 1,13,-1
 59 0 l 1,14,-1
 164 496 l 1,0,-1
EndSplineSet
EndChar
StartChar: x
Encoding: 120 120 213
Width: 632
GlyphClass: 2
Flags: W
AnchorPoint: "Anchor-1" 370 496 basechar 0
AnchorPoint: "Anchor-0" 264 0 basechar 0
LayerCount: 2
Fore
SplineSet
231 260 m 1,0,-1
 109 496 l 1,1,-1
 283 496 l 1,2,-1
 340 384 l 1,3,-1
 344 384 l 1,4,-1
 447 496 l 1,5,-1
 629 496 l 1,6,-1
 408 260 l 1,7,-1
 539 0 l 1,8,-1
 366 0 l 1,9,-1
 299 136 l 1,10,-1
 295 136 l 1,11,-1
 170 0 l 1,12,-1
 -13 0 l 1,13,-1
 231 260 l 1,0,-1
EndSplineSet
EndChar
StartChar: braceleft
Encoding: 123 123 270
Width: 632
GlyphClass: 1
Flags: W
LayerCount: 2
Fore
SplineSet
132 -33 m 0,1,2
 132 -12 132 -12 139 23 c 2,3,-1
 159 112 l 2,4,5
 163 131 163 131 163 148 c 0,6,7
 163 178 163 178 145.5 191.5 c 128,-1,8
 128 205 128 205 89 207 c 1,9,-1
 116 339 l 1,10,11
 154 340 154 340 175 349.5 c 128,-1,12
 196 359 196 359 207 378.5 c 128,-1,13
 218 398 218 398 226 434 c 2,14,-1
 254 559 l 2,15,16
 272 642 272 642 316 675 c 128,-1,17
 360 708 360 708 447 708 c 2,18,-1
 599 708 l 1,19,-1
 572 580 l 1,20,-1
 466 580 l 2,21,22
 434 580 434 580 422.5 573 c 128,-1,23
 411 566 411 566 405 540 c 2,24,-1
 374 400 l 2,25,26
 361 342 361 342 332.5 313.5 c 128,-1,27
 304 285 304 285 249 276 c 1,28,-1
 247 270 l 1,29,30
 287 255 287 255 305 231.5 c 128,-1,31
 323 208 323 208 323 173 c 0,32,33
 323 152 323 152 317 126 c 2,34,-1
 292 15 l 1,35,-1
 290 -2 l 2,36,37
 290 -19 290 -19 303.5 -26.5 c 128,-1,38
 317 -34 317 -34 349 -34 c 2,39,-1
 442 -34 l 1,40,-1
 415 -162 l 1,41,-1
 305 -162 l 2,42,0
 132 -162 132 -162 132 -33 c 0,1,2
EndSplineSet
EndChar
StartChar: bar
Encoding: 124 124 296
Width: 632
GlyphClass: 1
Flags: W
LayerCount: 2
Fore
SplineSet
362 838 m 1,0,-1
 520 838 l 1,1,-1
 308 -162 l 1,2,-1
 150 -162 l 1,3,-1
 362 838 l 1,0,-1
EndSplineSet
EndChar
StartChar: braceright
Encoding: 125 125 271
Width: 632
GlyphClass: 1
Flags: W
LayerCount: 2
Fore
SplineSet
71 -34 m 1,0,-1
 177 -34 l 2,1,2
 209 -34 209 -34 220.5 -27 c 128,-1,3
 232 -20 232 -20 238 6 c 2,4,-1
 269 146 l 2,5,6
 282 204 282 204 310.5 232.5 c 128,-1,7
 339 261 339 261 394 270 c 1,8,-1
 396 276 l 1,9,10
 356 291 356 291 338 314.5 c 128,-1,11
 320 338 320 338 320 373 c 0,12,13
 320 395 320 395 326 420 c 2,14,-1
 351 531 l 1,15,-1
 353 548 l 2,16,17
 353 565 353 565 339.5 572.5 c 128,-1,18
 326 580 326 580 294 580 c 2,19,-1
 201 580 l 1,20,-1
 228 708 l 1,21,-1
 338 708 l 2,22,23
 511 708 511 708 511 579 c 0,24,25
 511 558 511 558 504 523 c 2,26,-1
 484 434 l 2,27,28
 480 415 480 415 480 398 c 0,29,30
 480 368 480 368 497.5 354.5 c 128,-1,31
 515 341 515 341 554 339 c 1,32,-1
 527 207 l 1,33,34
 489 206 489 206 468 196.5 c 128,-1,35
 447 187 447 187 436 167.5 c 128,-1,36
 425 148 425 148 417 112 c 2,37,-1
 389 -13 l 2,38,39
 371 -96 371 -96 327 -129 c 128,-1,40
 283 -162 283 -162 196 -162 c 2,41,-1
 44 -162 l 1,42,-1
 71 -34 l 1,0,-1
EndSplineSet
EndChar
StartChar: asciitilde
Encoding: 126 126 324
Width: 632
GlyphClass: 1
Flags: W
LayerCount: 2
Fore
SplineSet
137 310.5 m 128,-1,1
 174 355 174 355 236 355 c 0,2,3
 266 355 266 355 286 345.5 c 128,-1,4
 306 336 306 336 330 319 c 0,5,6
 347 306 347 306 360 300 c 128,-1,7
 373 294 373 294 388 294 c 0,8,9
 413 294 413 294 429.5 313.5 c 128,-1,10
 446 333 446 333 454 382 c 1,11,-1
 560 340 l 1,12,13
 537 251 537 251 500 206.5 c 128,-1,14
 463 162 463 162 401 162 c 0,15,16
 371 162 371 162 351 171.5 c 128,-1,17
 331 181 331 181 307 198 c 0,18,19
 290 211 290 211 277 217 c 128,-1,20
 264 223 264 223 249 223 c 0,21,22
 224 223 224 223 207.5 203.5 c 128,-1,23
 191 184 191 184 183 135 c 1,24,-1
 77 177 l 1,25,0
 100 266 100 266 137 310.5 c 128,-1,1
EndSplineSet
EndChar
StartChar: sterling
Encoding: 163 163 307
Width: 632
GlyphClass: 1
Flags: W
LayerCount: 2
Fore
SplineSet
139 184.5 m 128,-1,1
 180 223 180 223 180 282 c 1,2,-1
 179 291 l 1,3,-1
 61 291 l 1,4,-1
 77 369 l 1,5,-1
 162 369 l 1,6,7
 137 436 137 436 137 489 c 0,8,9
 137 552 137 552 171.5 594.5 c 128,-1,10
 206 637 206 637 263.5 658 c 128,-1,11
 321 679 321 679 390 679 c 0,12,13
 479 679 479 679 548.5 641 c 128,-1,14
 618 603 618 603 645 531 c 1,15,-1
 499 479 l 1,16,17
 491 512 491 512 461.5 530.5 c 128,-1,18
 432 549 432 549 394 549 c 0,19,20
 353 549 353 549 328.5 528 c 128,-1,21
 304 507 304 507 304 471 c 0,22,23
 304 452 304 452 310 430.5 c 128,-1,24
 316 409 316 409 331 369 c 1,25,-1
 480 369 l 1,26,-1
 463 291 l 1,27,-1
 348 291 l 1,28,-1
 349 280 l 1,29,30
 349 197 349 197 209 120 c 1,31,32
 233 131 233 131 254.5 135 c 128,-1,33
 276 139 276 139 301 139 c 0,34,35
 329 139 329 139 377 129 c 0,36,37
 419 121 419 121 436 121 c 0,38,39
 486 121 486 121 545 153 c 1,40,-1
 564 24 l 1,41,42
 524 6 524 6 483 -3 c 128,-1,43
 442 -12 442 -12 391 -12 c 0,44,45
 367 -12 367 -12 344 -7 c 128,-1,46
 321 -2 321 -2 290 7 c 0,47,48
 267 13 267 13 242.5 18.5 c 128,-1,49
 218 24 218 24 197 24 c 0,50,51
 127 24 127 24 55 -12 c 1,52,-1
 21 112 l 1,53,0
 98 146 98 146 139 184.5 c 128,-1,1
EndSplineSet
EndChar
StartChar: currency
Encoding: 164 164 303
Width: 632
GlyphClass: 1
Flags: W
LayerCount: 2
Fore
SplineSet
86 129 m 1,0,-1
 153 196 l 1,1,2
 113 252 113 252 113 320 c 256,3,4
 113 388 113 388 153 444 c 1,5,-1
 86 511 l 1,6,-1
 141 566 l 1,7,-1
 208 499 l 1,8,9
 267 539 267 539 332 539 c 256,10,11
 397 539 397 539 456 499 c 1,12,-1
 523 566 l 1,13,-1
 578 511 l 1,14,-1
 511 444 l 1,15,16
 551 388 551 388 551 320 c 256,17,18
 551 252 551 252 511 196 c 1,19,-1
 578 129 l 1,20,-1
 523 74 l 1,21,-1
 456 141 l 1,22,23
 397 101 397 101 332 101 c 256,24,25
 267 101 267 101 208 141 c 1,26,-1
 141 74 l 1,27,-1
 86 129 l 1,0,-1
396 255 m 128,-1,29
 423 282 423 282 423 320 c 256,30,31
 423 358 423 358 396 385 c 128,-1,32
 369 412 369 412 332 412 c 256,33,34
 295 412 295 412 268 385 c 128,-1,35
 241 358 241 358 241 320 c 256,36,37
 241 282 241 282 268 255 c 128,-1,38
 295 228 295 228 332 228 c 256,39,28
 369 228 369 228 396 255 c 128,-1,29
EndSplineSet
EndChar
StartChar: brokenbar
Encoding: 166 166 297
Width: 632
GlyphClass: 1
Flags: W
LayerCount: 2
Fore
SplineSet
244 233 m 1,0,-1
 382 233 l 1,1,-1
 298 -162 l 1,2,-1
 160 -162 l 1,3,-1
 244 233 l 1,0,-1
372 838 m 1,4,-1
 510 838 l 1,5,-1
 426 443 l 1,6,-1
 288 443 l 1,7,-1
 372 838 l 1,4,-1
EndSplineSet
EndChar
StartChar: copyright
Encoding: 169 169 292
Width: 632
GlyphClass: 1
Flags: W
LayerCount: 2
Fore
SplineSet
182.5 33.5 m 128,-1,1
 115 80 115 80 76.5 159 c 128,-1,2
 38 238 38 238 38 333 c 256,3,4
 38 428 38 428 76.5 507 c 128,-1,5
 115 586 115 586 182.5 632.5 c 128,-1,6
 250 679 250 679 334 679 c 256,7,8
 418 679 418 679 485.5 632.5 c 128,-1,9
 553 586 553 586 591.5 507 c 128,-1,10
 630 428 630 428 630 333 c 256,11,12
 630 238 630 238 591.5 159 c 128,-1,13
 553 80 553 80 485.5 33.5 c 128,-1,14
 418 -13 418 -13 334 -13 c 256,15,0
 250 -13 250 -13 182.5 33.5 c 128,-1,1
217 195 m 128,-1,17
 176 247 176 247 176 335 c 0,18,19
 176 421 176 421 219.5 473.5 c 128,-1,20
 263 526 263 526 333 526 c 0,21,22
 378 526 378 526 416 503.5 c 128,-1,23
 454 481 454 481 474 430 c 1,24,-1
 392 394 l 1,25,26
 378 436 378 436 340 436 c 0,27,28
 313 436 313 436 294.5 412 c 128,-1,29
 276 388 276 388 276 335 c 0,30,31
 276 281 276 281 295 257 c 128,-1,32
 314 233 314 233 340 233 c 0,33,34
 359 233 359 233 372.5 241.5 c 128,-1,35
 386 250 386 250 393 265 c 1,36,-1
 473 230 l 1,37,38
 450 184 450 184 412 163.5 c 128,-1,39
 374 143 374 143 333 143 c 0,40,16
 258 143 258 143 217 195 c 128,-1,17
451 83.5 m 128,-1,42
 504 120 504 120 534 185.5 c 128,-1,43
 564 251 564 251 564 333 c 256,44,45
 564 415 564 415 534 480.5 c 128,-1,46
 504 546 504 546 451 582.5 c 128,-1,47
 398 619 398 619 334 619 c 256,48,49
 270 619 270 619 217 582.5 c 128,-1,50
 164 546 164 546 134 480.5 c 128,-1,51
 104 415 104 415 104 333 c 256,52,53
 104 251 104 251 134 185.5 c 128,-1,54
 164 120 164 120 217 83.5 c 128,-1,55
 270 47 270 47 334 47 c 256,56,41
 398 47 398 47 451 83.5 c 128,-1,42
EndSplineSet
EndChar
StartChar: guillemotleft
Encoding: 171 171 280
Width: 632
GlyphClass: 1
Flags: W
LayerCount: 2
Fore
SplineSet
272 242 m 1,0,-1
 460 460 l 1,1,-1
 651 460 l 1,2,-1
 455 234 l 1,3,-1
 562 40 l 1,4,-1
 385 40 l 1,5,-1
 272 242 l 1,0,-1
26 250 m 1,6,-1
 214 460 l 1,7,-1
 405 460 l 1,8,-1
 209 242 l 1,9,-1
 316 40 l 1,10,-1
 139 40 l 1,11,-1
 26 250 l 1,6,-1
EndSplineSet
EndChar
StartChar: registered
Encoding: 174 174 293
Width: 632
GlyphClass: 1
Flags: W
LayerCount: 2
Fore
SplineSet
182.5 33.5 m 128,-1,1
 115 80 115 80 76.5 159 c 128,-1,2
 38 238 38 238 38 333 c 256,3,4
 38 428 38 428 76.5 507 c 128,-1,5
 115 586 115 586 182.5 632.5 c 128,-1,6
 250 679 250 679 334 679 c 256,7,8
 418 679 418 679 485.5 632.5 c 128,-1,9
 553 586 553 586 591.5 507 c 128,-1,10
 630 428 630 428 630 333 c 256,11,12
 630 238 630 238 591.5 159 c 128,-1,13
 553 80 553 80 485.5 33.5 c 128,-1,14
 418 -13 418 -13 334 -13 c 256,15,0
 250 -13 250 -13 182.5 33.5 c 128,-1,1
451 83.5 m 128,-1,17
 504 120 504 120 534 185.5 c 128,-1,18
 564 251 564 251 564 333 c 256,19,20
 564 415 564 415 534 480.5 c 128,-1,21
 504 546 504 546 451 582.5 c 128,-1,22
 398 619 398 619 334 619 c 256,23,24
 270 619 270 619 217 582.5 c 128,-1,25
 164 546 164 546 134 480.5 c 128,-1,26
 104 415 104 415 104 333 c 256,27,28
 104 251 104 251 134 185.5 c 128,-1,29
 164 120 164 120 217 83.5 c 128,-1,30
 270 47 270 47 334 47 c 256,31,16
 398 47 398 47 451 83.5 c 128,-1,17
195 529 m 1,32,-1
 330 529 l 2,33,34
 396 529 396 529 434.5 503 c 128,-1,35
 473 477 473 477 473 415 c 0,36,37
 473 333 473 333 397 310 c 1,38,-1
 490 162 l 1,39,-1
 393 162 l 1,40,-1
 309 300 l 1,41,-1
 281 300 l 1,42,-1
 281 162 l 1,43,-1
 195 162 l 1,44,-1
 195 529 l 1,32,-1
366.5 385.5 m 128,-1,46
 381 393 381 393 381 414 c 256,47,48
 381 435 381 435 366.5 442.5 c 128,-1,49
 352 450 352 450 326 450 c 2,50,-1
 281 450 l 1,51,-1
 281 378 l 1,52,-1
 325 378 l 2,53,45
 352 378 352 378 366.5 385.5 c 128,-1,46
EndSplineSet
EndChar
StartChar: plusminus
Encoding: 177 177 321
Width: 632
GlyphClass: 1
Flags: W
LayerCount: 2
Fore
SplineSet
256 285 m 1,0,-1
 65 285 l 1,1,-1
 89 398 l 1,2,-1
 280 398 l 1,3,-1
 301 496 l 1,4,-1
 438 496 l 1,5,-1
 416 398 l 1,6,-1
 607 398 l 1,7,-1
 583 285 l 1,8,-1
 393 285 l 1,9,-1
 372 190 l 1,10,-1
 236 190 l 1,11,-1
 256 285 l 1,0,-1
33 136 m 1,12,-1
 551 136 l 1,13,-1
 522 0 l 1,14,-1
 4 0 l 1,15,-1
 33 136 l 1,12,-1
EndSplineSet
EndChar
StartChar: uni00B2
Encoding: 178 178 245
Width: 632
GlyphClass: 1
Flags: W
LayerCount: 2
Fore
SplineSet
400 584.5 m 128,-1,1
 459 632 459 632 459 668 c 0,2,3
 459 685 459 685 447 695.5 c 128,-1,4
 435 706 435 706 413 706 c 0,5,6
 387 706 387 706 370.5 692.5 c 128,-1,7
 354 679 354 679 347 657 c 1,8,-1
 254 693 l 1,9,10
 299 786 299 786 415 786 c 0,11,12
 485 786 485 786 526.5 758.5 c 128,-1,13
 568 731 568 731 568 680 c 0,14,15
 568 631 568 631 538.5 592.5 c 128,-1,16
 509 554 509 554 468 527 c 128,-1,17
 427 500 427 500 363 465 c 2,18,-1
 345 455 l 1,19,-1
 524 455 l 1,20,-1
 505 364 l 1,21,-1
 177 364 l 1,22,-1
 195 450 l 1,23,0
 341 537 341 537 400 584.5 c 128,-1,1
EndSplineSet
EndChar
StartChar: uni00B3
Encoding: 179 179 246
Width: 632
GlyphClass: 1
Flags: W
LayerCount: 2
Fore
SplineSet
254.5 381 m 128,-1,1
 215 405 215 405 199 451 c 1,2,-1
 299 484 l 1,3,4
 311 438 311 438 366 438 c 0,5,6
 391 438 391 438 407.5 452 c 128,-1,7
 424 466 424 466 424 490 c 0,8,9
 424 512 424 512 402 522 c 128,-1,10
 380 532 380 532 335 532 c 1,11,-1
 354 621 l 1,12,13
 454 619 454 619 454 667 c 0,14,15
 454 683 454 683 439 694 c 128,-1,16
 424 705 424 705 399 705 c 0,17,18
 377 705 377 705 362 696 c 128,-1,19
 347 687 347 687 336 668 c 1,20,-1
 244 703 l 1,21,22
 265 743 265 743 308 764.5 c 128,-1,23
 351 786 351 786 402 786 c 0,24,25
 468 786 468 786 515 756 c 128,-1,26
 562 726 562 726 562 677 c 0,27,28
 562 643 562 643 541.5 614.5 c 128,-1,29
 521 586 521 586 488 571 c 1,30,31
 511 558 511 558 523 537 c 128,-1,32
 535 516 535 516 535 490 c 0,33,34
 535 429 535 429 485.5 393 c 128,-1,35
 436 357 436 357 365 357 c 256,36,0
 294 357 294 357 254.5 381 c 128,-1,1
EndSplineSet
EndChar
StartChar: paragraph
Encoding: 182 182 290
Width: 632
GlyphClass: 1
Flags: W
LayerCount: 2
Fore
SplineSet
149 364 m 128,-1,1
 115 407 115 407 115 462 c 0,2,3
 115 484 115 484 119 501 c 0,4,5
 135 578 135 578 198.5 623 c 128,-1,6
 262 668 262 668 352 668 c 2,7,-1
 659 668 l 1,8,-1
 645 601 l 1,9,-1
 597 601 l 1,10,-1
 435 -162 l 1,11,-1
 337 -162 l 1,12,-1
 499 601 l 1,13,-1
 408 601 l 1,14,-1
 246 -162 l 1,15,-1
 148 -162 l 1,16,-1
 247 302 l 1,17,0
 183 321 183 321 149 364 c 128,-1,1
EndSplineSet
EndChar
StartChar: uni00B9
Encoding: 185 185 244
Width: 632
GlyphClass: 1
Flags: W
LayerCount: 2
Fore
SplineSet
394 640 m 1,0,-1
 303 640 l 1,1,-1
 321 729 l 1,2,3
 331 728 331 728 349 728 c 0,4,5
 390 728 390 728 411 739 c 128,-1,6
 432 750 432 750 447 779 c 1,7,-1
 531 779 l 1,8,-1
 443 364 l 1,9,-1
 336 364 l 1,10,-1
 394 640 l 1,0,-1
EndSplineSet
EndChar
StartChar: ordmasculine
Encoding: 186 186 224
Width: 632
GlyphClass: 1
Flags: W
LayerCount: 2
Fore
SplineSet
235.5 374.5 m 128,-1,1
 187 414 187 414 187 487 c 0,2,3
 187 541 187 541 210 588 c 128,-1,4
 233 635 233 635 278 664 c 128,-1,5
 323 693 323 693 387 693 c 0,6,7
 462 693 462 693 510.5 653.5 c 128,-1,8
 559 614 559 614 559 541 c 0,9,10
 559 487 559 487 536 440 c 128,-1,11
 513 393 513 393 468 364 c 128,-1,12
 423 335 423 335 359 335 c 0,13,0
 284 335 284 335 235.5 374.5 c 128,-1,1
420 460.5 m 128,-1,15
 441 497 441 497 441 536 c 0,16,17
 441 566 441 566 427 585.5 c 128,-1,18
 413 605 413 605 386 605 c 256,19,20
 359 605 359 605 340.5 586.5 c 128,-1,21
 322 568 322 568 313.5 542 c 128,-1,22
 305 516 305 516 305 492 c 0,23,24
 305 462 305 462 319 443 c 128,-1,25
 333 424 333 424 360 424 c 0,26,14
 399 424 399 424 420 460.5 c 128,-1,15
EndSplineSet
EndChar
StartChar: onequarter
Encoding: 188 188 242
Width: 632
GlyphClass: 3
Flags: W
LayerCount: 2
Fore
SplineSet
157 543 m 1,0,-1
 88 543 l 1,1,-1
 108 635 l 1,2,3
 157 634 157 634 177 641 c 128,-1,4
 197 648 197 648 208 668 c 1,5,-1
 284 668 l 1,6,-1
 218 357 l 1,7,-1
 118 357 l 1,8,-1
 157 543 l 1,0,-1
501 668 m 1,9,-1
 631 668 l 1,10,-1
 139 0 l 1,11,-1
 9 0 l 1,12,-1
 501 668 l 1,9,-1
427 57 m 1,13,-1
 272 57 l 1,14,-1
 289 137 l 1,15,-1
 467 311 l 1,16,-1
 573 311 l 1,17,-1
 537 140 l 1,18,-1
 582 140 l 1,19,-1
 564 57 l 1,20,-1
 519 57 l 1,21,-1
 507 0 l 1,22,-1
 415 0 l 1,23,-1
 427 57 l 1,13,-1
446 140 m 1,24,-1
 460 207 l 1,25,-1
 458 207 l 1,26,-1
 392 140 l 1,27,-1
 446 140 l 1,24,-1
EndSplineSet
Ligature2: "'frac' Diagonal Fractions in Latin lookup 7 subtable" one slash four
EndChar
StartChar: onehalf
Encoding: 189 189 241
Width: 632
GlyphClass: 3
Flags: W
LayerCount: 2
Fore
SplineSet
138 543 m 1,0,-1
 69 543 l 1,1,-1
 89 635 l 1,2,3
 138 634 138 634 158 641 c 128,-1,4
 178 648 178 648 189 668 c 1,5,-1
 265 668 l 1,6,-1
 199 357 l 1,7,-1
 99 357 l 1,8,-1
 138 543 l 1,0,-1
482 668 m 1,9,-1
 612 668 l 1,10,-1
 120 0 l 1,11,-1
 -10 0 l 1,12,-1
 482 668 l 1,9,-1
470 166 m 128,-1,14
 510 195 510 195 510 218 c 0,15,16
 510 240 510 240 481 240 c 0,17,18
 467 240 467 240 455.5 232 c 128,-1,19
 444 224 444 224 440 214 c 1,20,-1
 355 242 l 1,21,22
 379 279 379 279 412 296.5 c 128,-1,23
 445 314 445 314 495 314 c 0,24,25
 541 314 541 314 576.5 293.5 c 128,-1,26
 612 273 612 273 612 231 c 0,27,28
 612 187 612 187 578 154 c 128,-1,29
 544 121 544 121 478 85 c 1,30,-1
 578 85 l 1,31,-1
 560 0 l 1,32,-1
 302 0 l 1,33,-1
 318 79 l 1,34,13
 430 137 430 137 470 166 c 128,-1,14
EndSplineSet
Ligature2: "'frac' Diagonal Fractions in Latin lookup 7 subtable" one slash two
EndChar
StartChar: questiondown
Encoding: 191 191 257
Width: 632
GlyphClass: 1
Flags: W
LayerCount: 2
Fore
SplineSet
137.5 -163 m 128,-1,1
 77 -144 77 -144 38 -104.5 c 128,-1,2
 -1 -65 -1 -65 -1 -8 c 0,3,4
 -1 60 -1 60 41 101.5 c 128,-1,5
 83 143 83 143 167 168 c 0,6,7
 227 187 227 187 250 204 c 128,-1,8
 273 221 273 221 277 245 c 2,9,-1
 279 258 l 1,10,-1
 444 258 l 1,11,-1
 440 241 l 2,12,13
 423 169 423 169 386 129 c 128,-1,14
 349 89 349 89 278 69 c 0,15,16
 219 52 219 52 194.5 39 c 128,-1,17
 170 26 170 26 170 3 c 0,18,19
 170 -22 170 -22 199.5 -37 c 128,-1,20
 229 -52 229 -52 270 -52 c 0,21,22
 310 -52 310 -52 344 -35 c 128,-1,23
 378 -18 378 -18 396 17 c 1,24,-1
 542 -42 l 1,25,26
 506 -110 506 -110 433.5 -146 c 128,-1,27
 361 -182 361 -182 262 -182 c 0,28,0
 198 -182 198 -182 137.5 -163 c 128,-1,1
317.5 334 m 128,-1,30
 287 364 287 364 287 407 c 0,31,32
 287 449 287 449 317.5 479.5 c 128,-1,33
 348 510 348 510 390 510 c 0,34,35
 433 510 433 510 463 479.5 c 128,-1,36
 493 449 493 449 493 407 c 0,37,38
 493 364 493 364 463 334 c 128,-1,39
 433 304 433 304 390 304 c 0,40,29
 348 304 348 304 317.5 334 c 128,-1,30
EndSplineSet
EndChar
StartChar: Aring
Encoding: 197 197 10
Width: 632
GlyphClass: 2
Flags: W
AnchorPoint: "Anchor-2" 550 10 basechar 0
AnchorPoint: "Anchor-1" 440 865 basechar 0
AnchorPoint: "Anchor-0" 263 0 basechar 0
LayerCount: 2
Fore
SplineSet
274 729 m 0,1,2
 274 766 274 766 292.5 797.5 c 128,-1,3
 311 829 311 829 342 847 c 128,-1,4
 373 865 373 865 410 865 c 256,5,6
 447 865 447 865 478.5 847 c 128,-1,7
 510 829 510 829 529 797.5 c 128,-1,8
 548 766 548 766 548 729 c 0,9,10
 548 698 548 698 535 670.5 c 128,-1,11
 522 643 522 643 498 624 c 1,12,-1
 548 0 l 1,13,-1
 398 0 l 1,14,-1
 392 114 l 1,15,-1
 187 114 l 1,16,-1
 132 0 l 1,17,-1
 -22 0 l 1,18,-1
 304 644 l 1,19,0
 274 682 274 682 274 729 c 0,1,2
385 251 m 1,20,-1
 372 496 l 1,21,-1
 368 496 l 1,22,-1
 251 251 l 1,23,-1
 385 251 l 1,20,-1
444 695.5 m 128,-1,25
 457 709 457 709 457 728 c 0,26,27
 457 748 457 748 444 761 c 128,-1,28
 431 774 431 774 411 774 c 0,29,30
 392 774 392 774 378.5 760.5 c 128,-1,31
 365 747 365 747 365 728 c 256,32,33
 365 709 365 709 378.5 695.5 c 128,-1,34
 392 682 392 682 411 682 c 0,35,24
 431 682 431 682 444 695.5 c 128,-1,25
EndSplineSet
EndChar
StartChar: ccedilla
Encoding: 231 231 127
Width: 632
GlyphClass: 2
Flags: W
AnchorPoint: "Anchor-1" 390 496 basechar 0
LayerCount: 2
Fore
SplineSet
157 -168 m 1,1,-1
 183 -118 l 1,2,3
 193 -124 193 -124 213 -130 c 128,-1,4
 233 -136 233 -136 251 -136 c 0,5,6
 266 -136 266 -136 276.5 -129 c 128,-1,7
 287 -122 287 -122 287 -108 c 0,8,9
 287 -98 287 -98 279 -91.5 c 128,-1,10
 271 -85 271 -85 258 -85 c 256,11,12
 245 -85 245 -85 233 -87 c 256,13,14
 221 -89 221 -89 214.5 -84.5 c 128,-1,15
 208 -80 208 -80 208 -71 c 0,16,17
 208 -61 208 -61 215 -53 c 2,18,-1
 254 -6 l 1,19,20
 167 9 167 9 118.5 64 c 128,-1,21
 70 119 70 119 70 208 c 0,22,23
 70 295 70 295 107.5 364 c 128,-1,24
 145 433 145 433 212 472 c 128,-1,25
 279 511 279 511 365 511 c 0,26,27
 444 511 444 511 508.5 477 c 128,-1,28
 573 443 573 443 598 374 c 1,29,-1
 463 327 l 1,30,31
 452 356 452 356 426.5 371 c 128,-1,32
 401 386 401 386 370 386 c 0,33,34
 324 386 324 386 294 359.5 c 128,-1,35
 264 333 264 333 250.5 294.5 c 128,-1,36
 237 256 237 256 237 218 c 0,37,38
 237 169 237 169 262.5 141 c 128,-1,39
 288 113 288 113 341 113 c 0,40,41
 371 113 371 113 394.5 124 c 128,-1,42
 418 135 418 135 430 157 c 1,43,-1
 563 105 l 1,44,45
 529 52 529 52 466 19 c 128,-1,46
 403 -14 403 -14 308 -12 c 1,47,-1
 279 -47 l 1,48,49
 284 -46 284 -46 294 -46 c 0,50,51
 333 -46 333 -46 360 -62.5 c 128,-1,52
 387 -79 387 -79 387 -108 c 0,53,54
 387 -149 387 -149 353 -168.5 c 128,-1,55
 319 -188 319 -188 266 -188 c 0,56,0
 206 -188 206 -188 157 -168 c 1,1,-1
EndSplineSet
EndChar
StartChar: divide
Encoding: 247 247 314
Width: 632
GlyphClass: 1
Flags: W
LayerCount: 2
Fore
SplineSet
73 317 m 1,0,-1
 589 317 l 1,1,-1
 559 179 l 1,2,-1
 43 179 l 1,3,-1
 73 317 l 1,0,-1
220 7.5 m 128,-1,5
 196 32 196 32 196 66 c 0,6,7
 196 99 196 99 220 123.5 c 128,-1,8
 244 148 244 148 277 148 c 0,9,10
 311 148 311 148 335 123.5 c 128,-1,11
 359 99 359 99 359 66 c 0,12,13
 359 32 359 32 335 7.5 c 128,-1,14
 311 -17 311 -17 277 -17 c 0,15,4
 244 -17 244 -17 220 7.5 c 128,-1,5
298 372.5 m 128,-1,17
 274 397 274 397 274 431 c 256,18,19
 274 465 274 465 298 489 c 128,-1,20
 322 513 322 513 355 513 c 0,21,22
 389 513 389 513 413 489 c 128,-1,23
 437 465 437 465 437 431 c 256,24,25
 437 397 437 397 413 372.5 c 128,-1,26
 389 348 389 348 355 348 c 0,27,16
 322 348 322 348 298 372.5 c 128,-1,17
EndSplineSet
EndChar
StartChar: thorn
Encoding: 254 254 183
Width: 632
GlyphClass: 2
Flags: W
AnchorPoint: "Anchor-1" 368 496 basechar 0
AnchorPoint: "Anchor-0" 262 0 basechar 0
LayerCount: 2
Fore
SplineSet
157 708 m 1,0,-1
 321 708 l 1,1,-1
 263 430 l 1,2,3
 295 470 295 470 336.5 490.5 c 128,-1,4
 378 511 378 511 423 511 c 0,5,6
 504 511 504 511 551 453.5 c 128,-1,7
 598 396 598 396 598 305 c 0,8,9
 598 223 598 223 566 150.5 c 128,-1,10
 534 78 534 78 473 33 c 128,-1,11
 412 -12 412 -12 331 -12 c 0,12,13
 282 -12 282 -12 242 10.5 c 128,-1,14
 202 33 202 33 187 75 c 1,15,-1
 137 -162 l 1,16,-1
 -27 -162 l 1,17,-1
 157 708 l 1,0,-1
371 142.5 m 128,-1,19
 401 171 401 171 415 211 c 128,-1,20
 429 251 429 251 429 286 c 0,21,22
 429 331 429 331 407.5 358.5 c 128,-1,23
 386 386 386 386 346 386 c 0,24,25
 301 386 301 386 270.5 356.5 c 128,-1,26
 240 327 240 327 225.5 285 c 128,-1,27
 211 243 211 243 211 207 c 0,28,29
 211 163 211 163 233 138.5 c 128,-1,30
 255 114 255 114 297 114 c 0,31,18
 341 114 341 114 371 142.5 c 128,-1,19
EndSplineSet
EndChar
StartChar: dcaron
Encoding: 271 271 130
Width: 632
GlyphClass: 1
Flags: W
LayerCount: 2
Fore
SplineSet
43 44.5 m 128,-1,1
 2 101 2 101 2 189 c 0,2,3
 2 264 2 264 30 338 c 128,-1,4
 58 412 58 412 114.5 461.5 c 128,-1,5
 171 511 171 511 252 511 c 0,6,7
 290 511 290 511 323 492.5 c 128,-1,8
 356 474 356 474 373 440 c 1,9,-1
 427 708 l 1,10,-1
 586 708 l 1,11,-1
 477 195 l 2,12,13
 455 88 455 88 451 0 c 1,14,-1
 299 0 l 1,15,-1
 296 46 l 1,16,17
 264 16 264 16 228.5 2 c 128,-1,18
 193 -12 193 -12 160 -12 c 0,19,0
 84 -12 84 -12 43 44.5 c 128,-1,1
294.5 146 m 128,-1,21
 320 178 320 178 332 221.5 c 128,-1,22
 344 265 344 265 344 299 c 0,23,24
 344 338 344 338 328 362 c 128,-1,25
 312 386 312 386 278 386 c 0,26,27
 242 386 242 386 216.5 357 c 128,-1,28
 191 328 191 328 178 286.5 c 128,-1,29
 165 245 165 245 165 209 c 0,30,31
 165 168 165 168 181 141 c 128,-1,32
 197 114 197 114 230 114 c 0,33,20
 269 114 269 114 294.5 146 c 128,-1,21
686 718 m 0,35,36
 704 718 704 718 713.5 709 c 128,-1,37
 723 700 723 700 723 685 c 0,38,39
 723 669 723 669 714 647 c 128,-1,40
 705 625 705 625 692 605 c 2,41,-1
 640 524 l 1,42,-1
 571 524 l 1,43,-1
 621 658 l 2,44,34
 643 718 643 718 686 718 c 0,35,36
EndSplineSet
EndChar
StartChar: dcroat
Encoding: 273 273 131
Width: 632
GlyphClass: 1
Flags: W
LayerCount: 2
Fore
SplineSet
82 45.5 m 128,-1,1
 35 103 35 103 35 194 c 0,2,3
 35 276 35 276 67 348.5 c 128,-1,4
 99 421 99 421 160 466 c 128,-1,5
 221 511 221 511 302 511 c 0,6,7
 352 511 352 511 392 488.5 c 128,-1,8
 432 466 432 466 446 424 c 1,9,-1
 472 544 l 1,10,-1
 334 544 l 1,11,-1
 352 624 l 1,12,-1
 489 624 l 1,13,-1
 507 708 l 1,14,-1
 671 708 l 1,15,-1
 653 624 l 1,16,-1
 708 624 l 1,17,-1
 690 544 l 1,18,-1
 636 544 l 1,19,-1
 561 195 l 2,20,21
 538 85 538 85 537 0 c 1,22,-1
 380 0 l 1,23,-1
 374 66 l 1,24,25
 339 26 339 26 296 7 c 128,-1,26
 253 -12 253 -12 210 -12 c 0,27,0
 129 -12 129 -12 82 45.5 c 128,-1,1
361.5 142.5 m 128,-1,29
 392 171 392 171 406.5 212.5 c 128,-1,30
 421 254 421 254 421 292 c 0,31,32
 421 336 421 336 399 361 c 128,-1,33
 377 386 377 386 335 386 c 0,34,35
 291 386 291 386 261.5 357.5 c 128,-1,36
 232 329 232 329 218 288.5 c 128,-1,37
 204 248 204 248 204 214 c 0,38,39
 204 169 204 169 225.5 141.5 c 128,-1,40
 247 114 247 114 287 114 c 0,41,28
 331 114 331 114 361.5 142.5 c 128,-1,29
EndSplineSet
EndChar
StartChar: Hbar
Encoding: 294 294 38
Width: 632
GlyphClass: 1
Flags: W
LayerCount: 2
Fore
SplineSet
104 498 m 1,0,-1
 59 498 l 1,1,-1
 79 594 l 1,2,-1
 124 594 l 1,3,-1
 140 668 l 1,4,-1
 309 668 l 1,5,-1
 293 594 l 1,6,-1
 485 594 l 1,7,-1
 501 668 l 1,8,-1
 670 668 l 1,9,-1
 654 594 l 1,10,-1
 699 594 l 1,11,-1
 679 498 l 1,12,-1
 634 498 l 1,13,-1
 528 0 l 1,14,-1
 359 0 l 1,15,-1
 416 268 l 1,16,-1
 224 268 l 1,17,-1
 167 0 l 1,18,-1
 -2 0 l 1,19,-1
 104 498 l 1,0,-1
448 418 m 1,20,-1
 465 498 l 1,21,-1
 273 498 l 1,22,-1
 256 418 l 1,23,-1
 448 418 l 1,20,-1
EndSplineSet
EndChar
StartChar: hbar
Encoding: 295 295 148
Width: 632
GlyphClass: 1
Flags: W
LayerCount: 2
Fore
SplineSet
139 544 m 1,0,-1
 84 544 l 1,1,-1
 102 624 l 1,2,-1
 156 624 l 1,3,-1
 174 708 l 1,4,-1
 338 708 l 1,5,-1
 320 624 l 1,6,-1
 458 624 l 1,7,-1
 440 544 l 1,8,-1
 304 544 l 1,9,-1
 280 432 l 1,10,11
 304 462 304 462 348 486.5 c 128,-1,12
 392 511 392 511 442 511 c 0,13,14
 584 511 584 511 584 375 c 0,15,16
 584 341 584 341 575 300 c 2,17,-1
 511 0 l 1,18,-1
 347 0 l 1,19,-1
 406 276 l 2,20,21
 411 304 411 304 411 322 c 0,22,23
 411 386 411 386 353 386 c 0,24,25
 312 386 312 386 283 349.5 c 128,-1,26
 254 313 254 313 240 248 c 2,27,-1
 188 0 l 1,28,-1
 24 0 l 1,29,-1
 139 544 l 1,0,-1
EndSplineSet
EndChar
StartChar: Iogonek
Encoding: 302 302 47
Width: 632
GlyphClass: 2
Flags: W
AnchorPoint: "Anchor-1" 405 668 basechar 0
LayerCount: 2
Fore
SplineSet
82 123 m 1,0,-1
 204 123 l 1,1,-1
 295 545 l 1,2,-1
 172 545 l 1,3,-1
 198 668 l 1,4,-1
 612 668 l 1,5,-1
 586 545 l 1,6,-1
 464 545 l 1,7,-1
 373 123 l 1,8,-1
 496 123 l 1,9,-1
 470 0 l 1,10,11
 433 -2 433 -2 396 -23.5 c 128,-1,12
 359 -45 359 -45 359 -67 c 0,13,14
 359 -81 359 -81 371.5 -88 c 128,-1,15
 384 -95 384 -95 404 -95 c 0,16,17
 422 -95 422 -95 450 -91 c 1,18,-1
 433 -172 l 1,19,20
 417 -176 417 -176 391 -176 c 0,21,22
 323 -176 323 -176 270.5 -154.5 c 128,-1,23
 218 -133 218 -133 218 -90 c 0,24,25
 218 -36 218 -36 301 0 c 1,26,-1
 56 0 l 1,27,-1
 82 123 l 1,0,-1
EndSplineSet
EndChar
StartChar: Lslash
Encoding: 321 321 55
Width: 632
GlyphClass: 1
Flags: W
LayerCount: 2
Fore
SplineSet
95 223 m 1,0,-1
 16 182 l 1,1,-1
 45 318 l 1,2,-1
 124 360 l 1,3,-1
 190 668 l 1,4,-1
 359 668 l 1,5,-1
 314 457 l 1,6,-1
 483 543 l 1,7,-1
 454 406 l 1,8,-1
 285 320 l 1,9,-1
 249 149 l 1,10,-1
 563 149 l 1,11,-1
 531 0 l 1,12,-1
 48 0 l 1,13,-1
 95 223 l 1,0,-1
EndSplineSet
EndChar
StartChar: florin
Encoding: 402 402 286
Width: 632
GlyphClass: 1
Flags: W
LayerCount: 2
Fore
SplineSet
46.5 -165.5 m 128,-1,1
 12 -159 12 -159 -28 -146 c 1,2,-1
 1 -9 l 1,3,4
 21 -15 21 -15 48 -19 c 128,-1,5
 75 -23 75 -23 91 -23 c 0,6,7
 122 -23 122 -23 139.5 -9.5 c 128,-1,8
 157 4 157 4 168 33 c 128,-1,9
 179 62 179 62 191 118 c 2,10,-1
 245 373 l 1,11,-1
 83 373 l 1,12,-1
 109 496 l 1,13,-1
 272 496 l 1,14,-1
 293 598 l 2,15,16
 309 673 309 673 350 703 c 128,-1,17
 391 733 391 733 473 733 c 2,18,-1
 674 733 l 1,19,-1
 647 603 l 1,20,-1
 497 603 l 2,21,22
 475 603 475 603 465 596 c 128,-1,23
 455 589 455 589 451 569 c 2,24,-1
 435 496 l 1,25,-1
 624 496 l 1,26,-1
 597 373 l 1,27,-1
 408 373 l 1,28,-1
 332 17 l 2,29,30
 311 -82 311 -82 260 -127 c 128,-1,31
 209 -172 209 -172 121 -172 c 0,32,0
 81 -172 81 -172 46.5 -165.5 c 128,-1,1
EndSplineSet
EndChar
StartChar: gravecomb
Encoding: 768 768 340
Width: 0
GlyphClass: 4
Flags: W
AnchorPoint: "Anchor-5" 463 731 basemark 0
AnchorPoint: "Anchor-5" 413 496 mark 0
AnchorPoint: "Anchor-1" 413 496 mark 0
LayerCount: 2
Fore
SplineSet
296 663 m 0,1,2
 296 689 296 689 317 710 c 128,-1,3
 338 731 338 731 363 731 c 0,4,5
 377 731 377 731 387 723 c 128,-1,6
 397 715 397 715 408 696 c 2,7,-1
 483 575 l 1,8,-1
 371 575 l 1,9,-1
 322 616 l 2,10,0
 296 638 296 638 296 663 c 0,1,2
EndSplineSet
Substitution2: "Single Substitution lookup 12 subtable" gravecomb.case
Substitution2: "'case' Case-Sensitive Forms in Latin lookup 9 subtable" gravecomb.case
AlternateSubs2: "'aalt' Access All Alternates in Latin lookup 0 subtable" gravecomb.case
EndChar
StartChar: acutecomb
Encoding: 769 769 342
Width: 0
GlyphClass: 4
Flags: W
AnchorPoint: "Anchor-5" 375 731 basemark 0
AnchorPoint: "Anchor-5" 325 496 mark 0
AnchorPoint: "Anchor-1" 325 496 mark 0
LayerCount: 2
Fore
SplineSet
439 723 m 128,-1,1
 454 731 454 731 475 731 c 0,2,3
 500 731 500 731 514 718.5 c 128,-1,4
 528 706 528 706 528 686 c 0,5,6
 528 664 528 664 514.5 648 c 128,-1,7
 501 632 501 632 476 616 c 2,8,-1
 409 575 l 1,9,-1
 277 575 l 1,10,-1
 404 696 l 2,11,0
 424 715 424 715 439 723 c 128,-1,1
EndSplineSet
Substitution2: "Single Substitution lookup 12 subtable" acutecomb.case
Substitution2: "'case' Case-Sensitive Forms in Latin lookup 9 subtable" acutecomb.case
AlternateSubs2: "'aalt' Access All Alternates in Latin lookup 0 subtable" acutecomb.case
EndChar
StartChar: uni0302
Encoding: 770 770 347
Width: 0
GlyphClass: 4
Flags: W
AnchorPoint: "Anchor-5" 419 732 basemark 0
AnchorPoint: "Anchor-5" 369 496 mark 0
AnchorPoint: "Anchor-1" 369 496 mark 0
LayerCount: 2
Fore
SplineSet
419 732 m 0,1,2
 448 732 448 732 466 712 c 2,3,-1
 587 574 l 1,4,-1
 459 574 l 1,5,-1
 404 635 l 1,6,-1
 322 574 l 1,7,-1
 183 574 l 1,8,-1
 365 712 l 2,9,0
 392 732 392 732 419 732 c 0,1,2
EndSplineSet
Substitution2: "Single Substitution lookup 12 subtable" uni0302.case
Substitution2: "'case' Case-Sensitive Forms in Latin lookup 9 subtable" uni0302.case
AlternateSubs2: "'aalt' Access All Alternates in Latin lookup 0 subtable" uni0302.case
EndChar
StartChar: tildecomb
Encoding: 771 771 355
Width: 0
GlyphClass: 4
Flags: W
AnchorPoint: "Anchor-5" 410 690 basemark 0
AnchorPoint: "Anchor-5" 369 496 mark 0
AnchorPoint: "Anchor-1" 369 496 mark 0
LayerCount: 2
Fore
SplineSet
414.5 574 m 128,-1,1
 398 580 398 580 378 591 c 0,2,3
 357 605 357 605 340 605 c 0,4,5
 304 605 304 605 289 573 c 1,6,-1
 196 573 l 1,7,8
 217 630 217 630 256 660 c 128,-1,9
 295 690 295 690 350 690 c 0,10,11
 374 690 374 690 388.5 684 c 128,-1,12
 403 678 403 678 421 667 c 0,13,14
 435 658 435 658 444 654 c 128,-1,15
 453 650 453 650 465 650 c 0,16,17
 488 650 488 650 513 670 c 0,18,19
 537 691 537 691 555 691 c 0,20,21
 571 691 571 691 581 681.5 c 128,-1,22
 591 672 591 672 591 658 c 0,23,24
 591 635 591 635 570 614 c 128,-1,25
 549 593 549 593 518 580.5 c 128,-1,26
 487 568 487 568 459 568 c 256,27,0
 431 568 431 568 414.5 574 c 128,-1,1
EndSplineSet
Substitution2: "Single Substitution lookup 12 subtable" tildecomb.case
Substitution2: "'case' Case-Sensitive Forms in Latin lookup 9 subtable" tildecomb.case
AlternateSubs2: "'aalt' Access All Alternates in Latin lookup 0 subtable" tildecomb.case
EndChar
StartChar: uni0327
Encoding: 807 807 360
Width: 0
GlyphClass: 4
Flags: W
AnchorPoint: "Anchor-4" 210 -188 basemark 0
AnchorPoint: "Anchor-4" 250 0 mark 0
AnchorPoint: "Anchor-0" 250 0 mark 0
LayerCount: 2
Fore
SplineSet
118 -168 m 1,1,-1
 144 -118 l 1,2,3
 154 -124 154 -124 174 -130 c 128,-1,4
 194 -136 194 -136 212 -136 c 0,5,6
 227 -136 227 -136 237.5 -129 c 128,-1,7
 248 -122 248 -122 248 -108 c 0,8,9
 248 -98 248 -98 240 -91.5 c 128,-1,10
 232 -85 232 -85 219 -85 c 256,11,12
 206 -85 206 -85 194 -87 c 256,13,14
 182 -89 182 -89 175.5 -84.5 c 128,-1,15
 169 -80 169 -80 169 -71 c 0,16,17
 169 -61 169 -61 176 -53 c 2,18,-1
 244 29 l 1,19,-1
 281 3 l 1,20,-1
 240 -47 l 1,21,22
 245 -46 245 -46 255 -46 c 0,23,24
 294 -46 294 -46 321 -62.5 c 128,-1,25
 348 -79 348 -79 348 -108 c 0,26,27
 348 -149 348 -149 314 -168.5 c 128,-1,28
 280 -188 280 -188 227 -188 c 0,29,0
 167 -188 167 -188 118 -168 c 1,1,-1
EndSplineSet
EndChar
StartChar: uni0328
Encoding: 808 808 361
Width: 0
GlyphClass: 4
Flags: W
AnchorPoint: "Anchor-2" 385 10 mark 0
LayerCount: 2
Fore
SplineSet
182.5 -154.5 m 128,-1,1
 130 -133 130 -133 130 -89 c 0,2,3
 130 -54 130 -54 164.5 -27.5 c 128,-1,4
 199 -1 199 -1 246 17 c 1,5,-1
 383 0 l 1,6,7
 335 -7 335 -7 303.5 -26 c 128,-1,8
 272 -45 272 -45 272 -67 c 0,9,10
 272 -81 272 -81 284.5 -88 c 128,-1,11
 297 -95 297 -95 317 -95 c 0,12,13
 340 -95 340 -95 362 -91 c 1,14,-1
 346 -172 l 1,15,16
 330 -176 330 -176 304 -176 c 0,17,0
 235 -176 235 -176 182.5 -154.5 c 128,-1,1
EndSplineSet
Substitution2: "Single Substitution lookup 12 subtable" uni0328.case
Substitution2: "'case' Case-Sensitive Forms in Latin lookup 9 subtable" uni0328.case
AlternateSubs2: "'aalt' Access All Alternates in Latin lookup 0 subtable" uni0328.case
EndChar
StartChar: uni0394
Encoding: 916 916 225
Width: 632
GlyphClass: 1
Flags: W
LayerCount: 2
Fore
SplineSet
316 668 m 1,0,-1
 494 668 l 1,1,-1
 548 0 l 1,2,-1
 -22 0 l 1,3,-1
 316 668 l 1,0,-1
391 136 m 1,4,-1
 372 496 l 1,5,-1
 368 496 l 1,6,-1
 197 136 l 1,7,-1
 391 136 l 1,4,-1
EndSplineSet
EndChar
StartChar: uni03BC
Encoding: 956 956 227
Width: 632
GlyphClass: 1
Flags: W
LayerCount: 2
Fore
SplineSet
104 496 m 1,0,-1
 268 496 l 1,1,-1
 209 220 l 2,2,3
 204 193 204 193 204 176 c 0,4,5
 204 113 204 113 259 113 c 0,6,7
 298 113 298 113 326.5 149.5 c 128,-1,8
 355 186 355 186 369 251 c 2,9,-1
 421 496 l 1,10,-1
 586 496 l 1,11,-1
 522 197 l 2,12,13
 517 175 517 175 517 164 c 0,14,15
 517 145 517 145 528.5 138 c 128,-1,16
 540 131 540 131 567 131 c 2,17,-1
 587 131 l 1,18,-1
 560 0 l 1,19,-1
 466 0 l 2,20,21
 401 0 401 0 374.5 16.5 c 128,-1,22
 348 33 348 33 340 64 c 1,23,24
 281 -12 281 -12 193 -12 c 0,25,26
 175 -12 175 -12 161 -9 c 1,27,-1
 128 -162 l 1,28,-1
 -36 -162 l 1,29,-1
 104 496 l 1,0,-1
EndSplineSet
EndChar
StartChar: pi
Encoding: 960 960 228
Width: 632
GlyphClass: 1
Flags: W
LayerCount: 2
Fore
SplineSet
133 375 m 1,0,-1
 41 375 l 1,1,-1
 67 496 l 1,2,-1
 646 496 l 1,3,-1
 620 375 l 1,4,-1
 531 375 l 1,5,-1
 485 158 l 2,6,7
 483 144 483 144 483 140 c 0,8,9
 483 123 483 123 496 116.5 c 128,-1,10
 509 110 509 110 540 110 c 2,11,-1
 563 110 l 1,12,-1
 540 0 l 1,13,-1
 478 0 l 2,14,15
 402 0 402 0 370 19.5 c 128,-1,16
 338 39 338 39 338 86 c 0,17,18
 338 110 338 110 343 131 c 2,19,-1
 396 375 l 1,20,-1
 269 375 l 1,21,-1
 189 0 l 1,22,-1
 52 0 l 1,23,-1
 133 375 l 1,0,-1
EndSplineSet
EndChar
StartChar: uni1E9E
Encoding: 7838 7838 82
Width: 632
GlyphClass: 1
Flags: W
LayerCount: 2
Fore
SplineSet
268.5 24.5 m 128,-1,1
 229 61 229 61 217 114 c 1,2,-1
 340 157 l 1,3,4
 345 139 345 139 358 129 c 128,-1,5
 371 119 371 119 391 119 c 0,6,7
 417 119 417 119 434.5 147 c 128,-1,8
 452 175 452 175 452 211 c 0,9,10
 452 238 452 238 438 255.5 c 128,-1,11
 424 273 424 273 396 273 c 0,12,13
 377 273 377 273 362 268 c 1,14,-1
 327 363 l 1,15,-1
 503 546 l 1,16,17
 456 551 456 551 421 551 c 0,18,19
 348 551 348 551 304 518 c 128,-1,20
 260 485 260 485 246 422 c 2,21,-1
 157 0 l 1,22,-1
 -12 0 l 1,23,-1
 89 478 l 2,24,25
 103 546 103 546 137.5 590 c 128,-1,26
 172 634 172 634 238.5 657 c 128,-1,27
 305 680 305 680 413 680 c 0,28,29
 557 680 557 680 673 656 c 1,30,-1
 644 517 l 1,31,-1
 495 364 l 1,32,33
 546 345 546 345 575 307 c 128,-1,34
 604 269 604 269 604 214 c 0,35,36
 604 151 604 151 575 99 c 128,-1,37
 546 47 546 47 495 17.5 c 128,-1,38
 444 -12 444 -12 381 -12 c 0,39,0
 308 -12 308 -12 268.5 24.5 c 128,-1,1
EndSplineSet
EndChar
StartChar: emdash
Encoding: 8212 8212 266
Width: 632
GlyphClass: 1
Flags: W
LayerCount: 2
Fore
SplineSet
41 318 m 1,0,-1
 623 318 l 1,1,-1
 593 181 l 1,2,-1
 11 181 l 1,3,-1
 41 318 l 1,0,-1
EndSplineSet
EndChar
StartChar: quoteleft
Encoding: 8216 8216 278
Width: 632
GlyphClass: 1
Flags: W
LayerCount: 2
Fore
SplineSet
267 320.5 m 128,-1,1
 234 352 234 352 234 397 c 0,2,3
 234 417 234 417 240.5 434.5 c 128,-1,4
 247 452 247 452 260 473 c 2,5,-1
 384 668 l 1,6,-1
 498 668 l 1,7,-1
 394 506 l 1,8,9
 426 494 426 494 444 464.5 c 128,-1,10
 462 435 462 435 462 404 c 0,11,12
 462 356 462 356 428 322.5 c 128,-1,13
 394 289 394 289 346 289 c 0,14,0
 300 289 300 289 267 320.5 c 128,-1,1
EndSplineSet
EndChar
StartChar: quoteright
Encoding: 8217 8217 279
Width: 632
GlyphClass: 1
Flags: W
LayerCount: 2
Fore
SplineSet
289 505.5 m 128,-1,1
 271 535 271 535 271 566 c 0,2,3
 271 613 271 613 304.5 646.5 c 128,-1,4
 338 680 338 680 386 680 c 0,5,6
 432 680 432 680 465.5 648.5 c 128,-1,7
 499 617 499 617 499 573 c 0,8,9
 499 553 499 553 492.5 535.5 c 128,-1,10
 486 518 486 518 473 497 c 2,11,-1
 348 301 l 1,12,-1
 235 301 l 1,13,-1
 338 463 l 1,14,0
 307 476 307 476 289 505.5 c 128,-1,1
EndSplineSet
EndChar
StartChar: quotedblleft
Encoding: 8220 8220 276
Width: 632
GlyphClass: 1
Flags: W
LayerCount: 2
Fore
SplineSet
409 340 m 128,-1,1
 377 372 377 372 377 416 c 0,2,3
 377 450 377 450 400 484 c 2,4,-1
 521 668 l 1,5,-1
 632 668 l 1,6,-1
 529 516 l 1,7,8
 558 504 558 504 577 477 c 128,-1,9
 596 450 596 450 596 418 c 0,10,11
 596 373 596 373 564 340.5 c 128,-1,12
 532 308 532 308 487 308 c 0,13,0
 441 308 441 308 409 340 c 128,-1,1
138 340 m 128,-1,15
 106 372 106 372 106 416 c 0,16,17
 106 450 106 450 129 484 c 2,18,-1
 250 668 l 1,19,-1
 361 668 l 1,20,-1
 258 516 l 1,21,22
 287 504 287 504 306 477 c 128,-1,23
 325 450 325 450 325 418 c 0,24,25
 325 373 325 373 293 340.5 c 128,-1,26
 261 308 261 308 216 308 c 0,27,14
 170 308 170 308 138 340 c 128,-1,15
EndSplineSet
EndChar
StartChar: quotedblright
Encoding: 8221 8221 277
Width: 632
GlyphClass: 1
Flags: W
LayerCount: 2
Fore
SplineSet
430 511.5 m 128,-1,1
 411 539 411 539 411 571 c 0,2,3
 411 616 411 616 443.5 648 c 128,-1,4
 476 680 476 680 521 680 c 256,5,6
 566 680 566 680 598 648.5 c 128,-1,7
 630 617 630 617 630 573 c 0,8,9
 630 558 630 558 624.5 539.5 c 128,-1,10
 619 521 619 521 607 504 c 2,11,-1
 487 320 l 1,12,-1
 375 320 l 1,13,-1
 478 472 l 1,14,0
 449 484 449 484 430 511.5 c 128,-1,1
159 511.5 m 128,-1,16
 140 539 140 539 140 571 c 0,17,18
 140 616 140 616 172.5 648 c 128,-1,19
 205 680 205 680 250 680 c 256,20,21
 295 680 295 680 327 648.5 c 128,-1,22
 359 617 359 617 359 573 c 0,23,24
 359 558 359 558 353.5 539.5 c 128,-1,25
 348 521 348 521 336 504 c 2,26,-1
 215 320 l 1,27,-1
 104 320 l 1,28,-1
 207 472 l 1,29,15
 178 484 178 484 159 511.5 c 128,-1,16
EndSplineSet
EndChar
StartChar: quotedblbase
Encoding: 8222 8222 275
Width: 632
GlyphClass: 1
Flags: W
LayerCount: 2
Fore
SplineSet
56 27.5 m 128,-1,1
 37 55 37 55 37 87 c 0,2,3
 37 132 37 132 69.5 164 c 128,-1,4
 102 196 102 196 146 196 c 0,5,6
 192 196 192 196 224 164.5 c 128,-1,7
 256 133 256 133 256 89 c 0,8,9
 256 74 256 74 250.5 55.5 c 128,-1,10
 245 37 245 37 233 20 c 2,11,-1
 112 -164 l 1,12,-1
 1 -164 l 1,13,-1
 104 -12 l 1,14,0
 75 0 75 0 56 27.5 c 128,-1,1
327 27.5 m 128,-1,16
 308 55 308 55 308 87 c 0,17,18
 308 132 308 132 340.5 164 c 128,-1,19
 373 196 373 196 417 196 c 0,20,21
 463 196 463 196 495 164.5 c 128,-1,22
 527 133 527 133 527 89 c 0,23,24
 527 74 527 74 521.5 55.5 c 128,-1,25
 516 37 516 37 504 20 c 2,26,-1
 383 -164 l 1,27,-1
 272 -164 l 1,28,-1
 375 -12 l 1,29,15
 346 0 346 0 327 27.5 c 128,-1,16
EndSplineSet
EndChar
StartChar: daggerdbl
Encoding: 8225 8225 300
Width: 632
GlyphClass: 1
Flags: W
LayerCount: 2
Fore
SplineSet
223 173 m 1,0,-1
 40 173 l 1,1,-1
 66 294 l 1,2,-1
 249 294 l 1,3,-1
 266 374 l 1,4,-1
 83 374 l 1,5,-1
 108 496 l 1,6,-1
 292 496 l 1,7,-1
 329 668 l 1,8,-1
 484 668 l 1,9,-1
 447 496 l 1,10,-1
 630 496 l 1,11,-1
 604 374 l 1,12,-1
 421 374 l 1,13,-1
 404 294 l 1,14,-1
 587 294 l 1,15,-1
 562 173 l 1,16,-1
 379 173 l 1,17,-1
 342 0 l 1,18,-1
 187 0 l 1,19,-1
 223 173 l 1,0,-1
EndSplineSet
EndChar
StartChar: ellipsis
Encoding: 8230 8230 253
Width: 632
GlyphClass: 1
Flags: W
LayerCount: 2
Fore
SplineSet
16.5 14 m 128,-1,1
 -10 40 -10 40 -10 77 c 256,2,3
 -10 114 -10 114 16.5 140.5 c 128,-1,4
 43 167 43 167 80 167 c 256,5,6
 117 167 117 167 143 140.5 c 128,-1,7
 169 114 169 114 169 77 c 256,8,9
 169 40 169 40 143 14 c 128,-1,10
 117 -12 117 -12 80 -12 c 256,11,0
 43 -12 43 -12 16.5 14 c 128,-1,1
217.5 14 m 128,-1,13
 191 40 191 40 191 77 c 256,14,15
 191 114 191 114 217.5 140.5 c 128,-1,16
 244 167 244 167 281 167 c 256,17,18
 318 167 318 167 344 140.5 c 128,-1,19
 370 114 370 114 370 77 c 256,20,21
 370 40 370 40 344 14 c 128,-1,22
 318 -12 318 -12 281 -12 c 256,23,12
 244 -12 244 -12 217.5 14 c 128,-1,13
419.5 14 m 128,-1,25
 393 40 393 40 393 77 c 256,26,27
 393 114 393 114 419.5 140.5 c 128,-1,28
 446 167 446 167 483 167 c 256,29,30
 520 167 520 167 546.5 140.5 c 128,-1,31
 573 114 573 114 573 77 c 256,32,33
 573 40 573 40 546.5 14 c 128,-1,34
 520 -12 520 -12 483 -12 c 256,35,24
 446 -12 446 -12 419.5 14 c 128,-1,25
EndSplineSet
EndChar
StartChar: perthousand
Encoding: 8240 8240 333
Width: 632
GlyphClass: 1
Flags: W
LayerCount: 2
Fore
SplineSet
182.5 439.5 m 128,-1,1
 153 457 153 457 135.5 487 c 128,-1,2
 118 517 118 517 118 552 c 256,3,4
 118 587 118 587 135.5 617 c 128,-1,5
 153 647 153 647 182.5 664.5 c 128,-1,6
 212 682 212 682 247 682 c 256,7,8
 282 682 282 682 311.5 664.5 c 128,-1,9
 341 647 341 647 358.5 617 c 128,-1,10
 376 587 376 587 376 552 c 256,11,12
 376 517 376 517 358.5 487 c 128,-1,13
 341 457 341 457 311.5 439.5 c 128,-1,14
 282 422 282 422 247 422 c 256,15,0
 212 422 212 422 182.5 439.5 c 128,-1,1
279 518 m 128,-1,17
 292 532 292 532 292 552 c 256,18,19
 292 572 292 572 279 586 c 128,-1,20
 266 600 266 600 247 600 c 256,21,22
 228 600 228 600 215 586 c 128,-1,23
 202 572 202 572 202 552 c 256,24,25
 202 532 202 532 215 518 c 128,-1,26
 228 504 228 504 247 504 c 256,27,16
 266 504 266 504 279 518 c 128,-1,17
90.5 3.5 m 128,-1,29
 61 21 61 21 43.5 51 c 128,-1,30
 26 81 26 81 26 116 c 256,31,32
 26 151 26 151 43.5 181 c 128,-1,33
 61 211 61 211 90.5 228.5 c 128,-1,34
 120 246 120 246 155 246 c 256,35,36
 190 246 190 246 219.5 228.5 c 128,-1,37
 249 211 249 211 266.5 181 c 128,-1,38
 284 151 284 151 284 116 c 256,39,40
 284 81 284 81 266.5 51 c 128,-1,41
 249 21 249 21 219.5 3.5 c 128,-1,42
 190 -14 190 -14 155 -14 c 256,43,28
 120 -14 120 -14 90.5 3.5 c 128,-1,29
187 82 m 128,-1,45
 200 96 200 96 200 116 c 256,46,47
 200 136 200 136 187 150 c 128,-1,48
 174 164 174 164 155 164 c 256,49,50
 136 164 136 164 123 150 c 128,-1,51
 110 136 110 136 110 116 c 256,52,53
 110 96 110 96 123 82 c 128,-1,54
 136 68 136 68 155 68 c 256,55,44
 174 68 174 68 187 82 c 128,-1,45
364.5 3.5 m 128,-1,57
 335 21 335 21 317.5 51 c 128,-1,58
 300 81 300 81 300 116 c 256,59,60
 300 151 300 151 317.5 181 c 128,-1,61
 335 211 335 211 364.5 228.5 c 128,-1,62
 394 246 394 246 429 246 c 256,63,64
 464 246 464 246 493.5 228.5 c 128,-1,65
 523 211 523 211 540.5 181 c 128,-1,66
 558 151 558 151 558 116 c 256,67,68
 558 81 558 81 540.5 51 c 128,-1,69
 523 21 523 21 493.5 3.5 c 128,-1,70
 464 -14 464 -14 429 -14 c 256,71,56
 394 -14 394 -14 364.5 3.5 c 128,-1,57
461 82 m 128,-1,73
 474 96 474 96 474 116 c 256,74,75
 474 136 474 136 461 150 c 128,-1,76
 448 164 448 164 429 164 c 256,77,78
 410 164 410 164 397 150 c 128,-1,79
 384 136 384 136 384 116 c 256,80,81
 384 96 384 96 397 82 c 128,-1,82
 410 68 410 68 429 68 c 256,83,72
 448 68 448 68 461 82 c 128,-1,73
76 349 m 1,84,-1
 639 512 l 1,85,-1
 616 406 l 1,86,-1
 54 243 l 1,87,-1
 76 349 l 1,84,-1
EndSplineSet
EndChar
StartChar: guilsinglleft
Encoding: 8249 8249 282
Width: 632
GlyphClass: 1
Flags: W
LayerCount: 2
Fore
SplineSet
150 250 m 1,0,-1
 338 460 l 1,1,-1
 528 460 l 1,2,-1
 332 242 l 1,3,-1
 439 40 l 1,4,-1
 263 40 l 1,5,-1
 150 250 l 1,0,-1
EndSplineSet
EndChar
StartChar: guilsinglright
Encoding: 8250 8250 283
Width: 632
GlyphClass: 1
Flags: W
LayerCount: 2
Fore
SplineSet
301 258 m 1,0,-1
 194 460 l 1,1,-1
 370 460 l 1,2,-1
 483 250 l 1,3,-1
 295 40 l 1,4,-1
 105 40 l 1,5,-1
 301 258 l 1,0,-1
EndSplineSet
EndChar
StartChar: Euro
Encoding: 8364 8364 305
Width: 632
GlyphClass: 1
Flags: W
LayerCount: 2
Fore
SplineSet
216 21 m 128,-1,1
 163 54 163 54 134 109 c 128,-1,2
 105 164 105 164 99 230 c 1,3,-1
 5 230 l 1,4,-1
 59 308 l 1,5,-1
 101 308 l 1,6,7
 104 336 104 336 110 364 c 1,8,-1
 32 364 l 1,9,-1
 87 442 l 1,10,-1
 134 442 l 1,11,12
 175 546 175 546 253.5 613 c 128,-1,13
 332 680 332 680 440 680 c 0,14,15
 522 680 522 680 576.5 635.5 c 128,-1,16
 631 591 631 591 653 521 c 1,17,-1
 515 474 l 1,18,19
 504 504 504 504 479.5 522.5 c 128,-1,20
 455 541 455 541 424 541 c 0,21,22
 384 541 384 541 353 514 c 128,-1,23
 322 487 322 487 301 442 c 1,24,-1
 479 442 l 1,25,-1
 424 364 l 1,26,-1
 275 364 l 1,27,28
 268 339 268 339 265 308 c 1,29,-1
 383 308 l 1,30,-1
 329 230 l 1,31,-1
 264 230 l 1,32,33
 270 183 270 183 293.5 155 c 128,-1,34
 317 127 317 127 362 127 c 0,35,36
 430 127 430 127 462 192 c 1,37,-1
 600 137 l 1,38,39
 556 66 556 66 489 27 c 128,-1,40
 422 -12 422 -12 345 -12 c 0,41,0
 269 -12 269 -12 216 21 c 128,-1,1
EndSplineSet
EndChar
StartChar: uni20B9
Encoding: 8377 8377 306
Width: 632
GlyphClass: 1
Flags: W
LayerCount: 2
Fore
SplineSet
72 289 m 1,0,-1
 87 356 l 1,1,-1
 271 356 l 2,2,3
 333 356 333 356 359 407 c 1,4,-1
 98 407 l 1,5,-1
 114 485 l 1,6,-1
 371 485 l 1,7,8
 363 536 363 536 287 536 c 2,9,-1
 126 536 l 1,10,-1
 153 668 l 1,11,-1
 673 668 l 1,12,-1
 656 590 l 1,13,-1
 499 590 l 1,14,15
 536 544 536 544 538 485 c 1,16,-1
 634 485 l 1,17,-1
 618 407 l 1,18,-1
 530 407 l 1,19,20
 512 333 512 333 456.5 285 c 128,-1,21
 401 237 401 237 312 228 c 1,22,-1
 311 228 l 1,23,-1
 488 0 l 1,24,-1
 292 0 l 1,25,-1
 72 289 l 1,0,-1
EndSplineSet
EndChar
StartChar: partialdiff
Encoding: 8706 8706 331
Width: 632
GlyphClass: 1
Flags: W
LayerCount: 2
Fore
SplineSet
163 12 m 128,-1,1
 109 36 109 36 78.5 81.5 c 128,-1,2
 48 127 48 127 48 189 c 0,3,4
 48 258 48 258 81 318 c 128,-1,5
 114 378 114 378 172 414 c 128,-1,6
 230 450 230 450 302 450 c 0,7,8
 361 450 361 450 405.5 424 c 128,-1,9
 450 398 450 398 465 345 c 1,10,11
 466 351 466 351 466 364 c 0,12,13
 466 457 466 457 391.5 503 c 128,-1,14
 317 549 317 549 199 554 c 1,15,-1
 225 680 l 1,16,17
 387 666 387 666 491 601 c 128,-1,18
 595 536 595 536 595 385 c 0,19,20
 595 300 595 300 564.5 208.5 c 128,-1,21
 534 117 534 117 464.5 52.5 c 128,-1,22
 395 -12 395 -12 286 -12 c 0,23,0
 217 -12 217 -12 163 12 c 128,-1,1
353.5 134.5 m 128,-1,25
 378 154 378 154 390 183 c 128,-1,26
 402 212 402 212 402 239 c 0,27,28
 402 278 402 278 379.5 300 c 128,-1,29
 357 322 357 322 319 322 c 0,30,31
 286 322 286 322 261.5 305 c 128,-1,32
 237 288 237 288 223.5 260.5 c 128,-1,33
 210 233 210 233 210 203 c 0,34,35
 210 166 210 166 232.5 140.5 c 128,-1,36
 255 115 255 115 294 115 c 0,37,24
 329 115 329 115 353.5 134.5 c 128,-1,25
EndSplineSet
EndChar
StartChar: greaterequal
Encoding: 8805 8805 319
Width: 632
GlyphClass: 1
Flags: W
LayerCount: 2
Fore
SplineSet
64 283 m 1,0,-1
 405 333 l 1,1,-1
 84 380 l 1,2,-1
 112 511 l 1,3,-1
 606 394 l 1,4,-1
 577 259 l 1,5,-1
 34 143 l 1,6,-1
 64 283 l 1,0,-1
33 136 m 1,7,-1
 551 136 l 1,8,-1
 522 0 l 1,9,-1
 4 0 l 1,10,-1
 33 136 l 1,7,-1
EndSplineSet
EndChar
StartChar: uni0307.large
Encoding: 65542 -1 339
Width: 0
GlyphClass: 4
Flags: W
AnchorPoint: "Anchor-5" 427 765 basemark 0
AnchorPoint: "Anchor-5" 369 496 mark 0
AnchorPoint: "Anchor-1" 369 496 mark 0
LayerCount: 2
Fore
SplineSet
338.5 603.5 m 128,-1,1
 311 631 311 631 311 671 c 256,2,3
 311 711 311 711 338.5 738 c 128,-1,4
 366 765 366 765 406 765 c 256,5,6
 446 765 446 765 473.5 738 c 128,-1,7
 501 711 501 711 501 671 c 256,8,9
 501 631 501 631 473.5 603.5 c 128,-1,10
 446 576 446 576 406 576 c 256,11,0
 366 576 366 576 338.5 603.5 c 128,-1,1
EndSplineSet
EndChar
StartChar: uni030C.alt
Encoding: 65546 -1 346
Width: 0
GlyphClass: 4
Flags: W
AnchorPoint: "Anchor-3" 284 496 mark 0
LayerCount: 2
Fore
SplineSet
432 718 m 0,1,2
 457 718 457 718 471.5 704 c 128,-1,3
 486 690 486 690 486 672 c 0,4,5
 486 658 486 658 478.5 642.5 c 128,-1,6
 471 627 471 627 454 602 c 2,7,-1
 401 524 l 1,8,-1
 305 524 l 1,9,-1
 359 664 l 2,10,0
 380 718 380 718 432 718 c 0,1,2
EndSplineSet
EndChar
StartChar: uni0328.alt
Encoding: 65553 -1 362
Width: 0
GlyphClass: 4
Flags: W
AnchorPoint: "Anchor-2" 382 10 mark 0
LayerCount: 2
Fore
SplineSet
181.5 -152 m 128,-1,1
 131 -130 131 -130 131 -83 c 0,2,3
 131 -45 131 -45 171 -9 c 128,-1,4
 211 27 211 27 258 42 c 1,5,-1
 374 42 l 1,6,7
 326 12 326 12 298.5 -11 c 128,-1,8
 271 -34 271 -34 271 -61 c 0,9,10
 271 -77 271 -77 283.5 -86 c 128,-1,11
 296 -95 296 -95 318 -95 c 0,12,13
 336 -95 336 -95 360 -91 c 1,14,-1
 344 -172 l 1,15,16
 329 -174 329 -174 308 -174 c 0,17,0
 232 -174 232 -174 181.5 -152 c 128,-1,1
EndSplineSet
EndChar
StartChar: uni0328.case
Encoding: 65554 -1 363
Width: 0
GlyphClass: 4
Flags: W
AnchorPoint: "Anchor-2" 385 10 mark 0
LayerCount: 2
Fore
SplineSet
183 -154.5 m 128,-1,1
 130 -133 130 -133 130 -90 c 0,2,3
 130 -56 130 -56 160.5 -31.5 c 128,-1,4
 191 -7 191 -7 234 8 c 1,5,-1
 381 0 l 1,6,7
 362 -1 362 -1 336 -11 c 128,-1,8
 310 -21 310 -21 291 -36 c 128,-1,9
 272 -51 272 -51 272 -67 c 0,10,11
 272 -81 272 -81 284.5 -88 c 128,-1,12
 297 -95 297 -95 317 -95 c 0,13,14
 334 -95 334 -95 362 -91 c 1,15,-1
 346 -172 l 1,16,17
 330 -176 330 -176 304 -176 c 0,18,0
 236 -176 236 -176 183 -154.5 c 128,-1,1
EndSplineSet
EndChar
StartChar: zero.zero
Encoding: 65539 -1 239
Width: 632
GlyphClass: 1
Flags: W
LayerCount: 2
Fore
SplineSet
103.5 58.5 m 128,-1,1
 37 129 37 129 37 253 c 0,2,3
 37 349 37 349 71.5 447.5 c 128,-1,4
 106 546 106 546 181.5 613 c 128,-1,5
 257 680 257 680 373 680 c 0,6,7
 500 680 500 680 566 610 c 128,-1,8
 632 540 632 540 632 418 c 0,9,10
 632 323 632 323 597 223.5 c 128,-1,11
 562 124 562 124 486.5 56 c 128,-1,12
 411 -12 411 -12 296 -12 c 0,13,0
 170 -12 170 -12 103.5 58.5 c 128,-1,1
395 161 m 128,-1,15
 433 215 433 215 451 288.5 c 128,-1,16
 469 362 469 362 469 420 c 0,17,18
 469 483 469 483 446 522.5 c 128,-1,19
 423 562 423 562 371 562 c 0,20,21
 315 562 315 562 275.5 508 c 128,-1,22
 236 454 236 454 217 379.5 c 128,-1,23
 198 305 198 305 198 246 c 0,24,25
 198 184 198 184 222 145.5 c 128,-1,26
 246 107 246 107 299 107 c 0,27,14
 357 107 357 107 395 161 c 128,-1,15
275 274 m 128,-1,29
 250 299 250 299 250 334 c 256,30,31
 250 369 250 369 275 394 c 128,-1,32
 300 419 300 419 335 419 c 256,33,34
 370 419 370 419 395 394 c 128,-1,35
 420 369 420 369 420 334 c 256,36,37
 420 299 420 299 395 274 c 128,-1,38
 370 249 370 249 335 249 c 256,39,28
 300 249 300 249 275 274 c 128,-1,29
EndSplineSet
EndChar
